<svg width="1440" height="1024" viewBox="0 0 1440 1024" fill="none" xmlns="http://www.w3.org/2000/svg">
<g clip-path="url(#clip0_19131_168672)">
<rect width="1440" height="1024" fill="#0B0B1A"/>
<g filter="url(#filter0_d_19131_168672)">
<circle cx="718.024" cy="1154.02" r="528.024" fill="#04040D"/>
</g>
<rect opacity="0.1" x="96" y="53" width="91" height="65.8563" fill="#122047"/>
<rect opacity="0.1" x="285" y="53" width="96" height="65.8563" fill="#122047"/>
<rect opacity="0.1" x="478" y="53" width="92" height="65.8563" fill="#122047"/>
<rect opacity="0.1" x="666" y="53" width="96" height="65.8563" fill="#122047"/>
<rect opacity="0.1" x="860" y="53" width="96" height="65.8563" fill="#122047"/>
<rect opacity="0.1" x="1054" y="53" width="96" height="65.8563" fill="#122047"/>
<rect opacity="0.1" x="1246" y="53" width="98" height="65.8563" fill="#122047"/>
<rect opacity="0.1" y="118.856" width="91" height="65.001" fill="#122047"/>
<rect opacity="0.1" x="187" y="118.856" width="98" height="65.001" fill="#122047"/>
<rect opacity="0.1" x="381" y="118.856" width="92" height="65.001" fill="#122047"/>
<rect opacity="0.1" x="570" y="118.856" width="96" height="65.001" fill="#122047"/>
<rect opacity="0.1" x="762" y="118.856" width="98" height="65.001" fill="#122047"/>
<rect opacity="0.1" x="956" y="118.856" width="98" height="65.001" fill="#122047"/>
<rect opacity="0.1" x="1150" y="118.856" width="96" height="65.001" fill="#122047"/>
<rect opacity="0.1" x="1344" y="118.856" width="96" height="65.001" fill="#122047"/>
<rect opacity="0.1" x="96" y="183.857" width="91" height="65.8563" fill="#122047"/>
<rect opacity="0.1" x="285" y="183.857" width="96" height="65.8563" fill="#122047"/>
<rect opacity="0.1" x="478" y="183.857" width="92" height="65.8563" fill="#122047"/>
<rect opacity="0.1" x="666" y="183.857" width="96" height="65.8563" fill="#122047"/>
<rect opacity="0.1" x="860" y="183.857" width="96" height="65.8563" fill="#122047"/>
<rect opacity="0.1" x="1054" y="183.857" width="96" height="65.8563" fill="#122047"/>
<rect opacity="0.1" x="1246" y="183.857" width="98" height="65.8563" fill="#122047"/>
<rect opacity="0.1" y="249.714" width="91" height="65.001" fill="#122047"/>
<rect opacity="0.1" x="187" y="249.714" width="98" height="65.001" fill="#122047"/>
<rect opacity="0.1" x="381" y="249.714" width="92" height="65.001" fill="#122047"/>
<rect opacity="0.1" x="570" y="249.714" width="96" height="65.001" fill="#122047"/>
<rect opacity="0.1" x="762" y="249.714" width="98" height="65.001" fill="#122047"/>
<rect opacity="0.1" x="956" y="249.714" width="98" height="65.001" fill="#122047"/>
<rect opacity="0.1" x="1150" y="249.714" width="96" height="65.001" fill="#122047"/>
<rect opacity="0.1" x="1344" y="249.714" width="96" height="65.001" fill="#122047"/>
<rect opacity="0.1" x="96" y="314.715" width="91" height="65.8563" fill="#122047"/>
<rect opacity="0.1" x="285" y="314.715" width="96" height="65.8563" fill="#122047"/>
<rect opacity="0.1" x="478" y="314.715" width="92" height="65.8563" fill="#122047"/>
<rect opacity="0.1" x="666" y="314.715" width="96" height="65.8563" fill="#122047"/>
<rect opacity="0.1" x="860" y="314.715" width="96" height="65.8563" fill="#122047"/>
<rect opacity="0.1" x="1054" y="314.715" width="96" height="65.8563" fill="#122047"/>
<rect opacity="0.1" x="1246" y="314.715" width="98" height="65.8563" fill="#122047"/>
<rect opacity="0.1" y="380.571" width="91" height="65.8563" fill="#122047"/>
<rect opacity="0.1" x="187" y="380.571" width="98" height="65.8563" fill="#122047"/>
<rect opacity="0.1" x="381" y="380.571" width="92" height="65.8563" fill="#122047"/>
<rect opacity="0.1" x="570" y="380.571" width="96" height="65.8563" fill="#122047"/>
<rect opacity="0.1" x="762" y="380.571" width="98" height="65.8563" fill="#122047"/>
<rect opacity="0.1" x="956" y="380.571" width="98" height="65.8563" fill="#122047"/>
<rect opacity="0.1" x="1150" y="380.571" width="96" height="65.8563" fill="#122047"/>
<rect opacity="0.1" x="1344" y="380.571" width="96" height="65.8563" fill="#122047"/>
<rect opacity="0.1" x="96" y="446.427" width="91" height="64.1457" fill="#122047"/>
<rect opacity="0.1" x="285" y="446.427" width="96" height="64.1457" fill="#122047"/>
<rect opacity="0.1" x="478" y="446.427" width="92" height="64.1457" fill="#122047"/>
<rect opacity="0.1" x="666" y="446.427" width="96" height="64.1457" fill="#122047"/>
<rect opacity="0.1" x="860" y="446.427" width="96" height="64.1457" fill="#122047"/>
<rect opacity="0.1" x="1054" y="446.427" width="96" height="64.1457" fill="#122047"/>
<rect opacity="0.1" x="1246" y="446.427" width="98" height="64.1457" fill="#122047"/>
<rect opacity="0.1" y="510.573" width="91" height="65.8563" fill="#122047"/>
<rect opacity="0.1" x="187" y="510.573" width="98" height="65.8563" fill="#122047"/>
<rect opacity="0.1" x="381" y="510.573" width="92" height="65.8563" fill="#122047"/>
<rect opacity="0.1" x="570" y="510.573" width="96" height="65.8563" fill="#122047"/>
<rect opacity="0.1" x="762" y="510.573" width="98" height="65.8563" fill="#122047"/>
<rect opacity="0.1" x="956" y="510.573" width="98" height="65.8563" fill="#122047"/>
<rect opacity="0.1" x="1150" y="510.573" width="96" height="65.8563" fill="#122047"/>
<rect opacity="0.1" x="1344" y="510.573" width="96" height="65.8563" fill="#122047"/>
<rect opacity="0.1" x="96" y="576.429" width="91" height="65.8563" fill="#122047"/>
<rect opacity="0.1" x="285" y="576.429" width="96" height="65.8563" fill="#122047"/>
<rect opacity="0.1" x="478" y="576.429" width="92" height="65.8563" fill="#122047"/>
<rect opacity="0.1" x="666" y="576.429" width="96" height="65.8563" fill="#122047"/>
<rect opacity="0.1" x="860" y="576.429" width="96" height="65.8563" fill="#122047"/>
<rect opacity="0.1" x="1054" y="576.429" width="96" height="65.8563" fill="#122047"/>
<rect opacity="0.1" x="1246" y="576.429" width="98" height="65.8563" fill="#122047"/>
<rect opacity="0.1" y="642.285" width="91" height="65.001" fill="#122047"/>
<rect opacity="0.1" x="187" y="642.285" width="98" height="65.001" fill="#122047"/>
<rect opacity="0.1" x="381" y="642.285" width="92" height="65.001" fill="#122047"/>
<rect opacity="0.1" x="570" y="642.285" width="96" height="65.001" fill="#122047"/>
<rect opacity="0.1" x="762" y="642.285" width="98" height="65.001" fill="#122047"/>
<rect opacity="0.1" x="956" y="642.285" width="98" height="65.001" fill="#122047"/>
<rect opacity="0.1" x="1150" y="642.285" width="96" height="65.001" fill="#122047"/>
<rect opacity="0.1" x="1344" y="642.285" width="96" height="65.001" fill="#122047"/>
<rect opacity="0.1" x="96" y="707.286" width="91" height="65.8563" fill="#122047"/>
<rect opacity="0.1" x="285" y="707.286" width="96" height="65.8563" fill="#122047"/>
<rect opacity="0.1" x="478" y="707.286" width="92" height="65.8563" fill="#122047"/>
<rect opacity="0.1" x="666" y="707.286" width="96" height="65.8563" fill="#122047"/>
<rect opacity="0.1" x="860" y="707.286" width="96" height="65.8563" fill="#122047"/>
<rect opacity="0.1" x="1054" y="707.286" width="96" height="65.8563" fill="#122047"/>
<rect opacity="0.1" x="1246" y="707.286" width="98" height="65.8563" fill="#122047"/>
<rect opacity="0.1" y="773.143" width="91" height="65.001" fill="#122047"/>
<rect opacity="0.1" x="187" y="773.143" width="98" height="65.001" fill="#122047"/>
<rect opacity="0.1" x="381" y="773.143" width="92" height="65.001" fill="#122047"/>
<rect opacity="0.1" x="570" y="773.143" width="96" height="65.001" fill="#122047"/>
<rect opacity="0.1" x="762" y="773.143" width="98" height="65.001" fill="#122047"/>
<rect opacity="0.1" x="956" y="773.143" width="98" height="65.001" fill="#122047"/>
<rect opacity="0.1" x="1150" y="773.143" width="96" height="65.001" fill="#122047"/>
<rect opacity="0.1" x="1344" y="773.143" width="96" height="65.001" fill="#122047"/>
<rect opacity="0.1" x="96" y="838.144" width="91" height="65.8563" fill="#122047"/>
<rect opacity="0.1" x="285" y="838.144" width="96" height="65.8563" fill="#122047"/>
<rect opacity="0.1" x="478" y="838.144" width="92" height="65.8563" fill="#122047"/>
<rect opacity="0.1" x="666" y="838.144" width="96" height="65.8563" fill="#122047"/>
<rect opacity="0.1" x="860" y="838.144" width="96" height="65.8563" fill="#122047"/>
<rect opacity="0.1" x="1054" y="838.144" width="96" height="65.8563" fill="#122047"/>
<rect opacity="0.1" x="1246" y="838.144" width="98" height="65.8563" fill="#122047"/>
<g filter="url(#filter1_f_19131_168672)">
<circle cx="-133" cy="586" r="252" fill="url(#paint0_radial_19131_168672)"/>
</g>
<g filter="url(#filter2_f_19131_168672)">
<circle cx="1632" cy="495" r="252" fill="url(#paint1_radial_19131_168672)"/>
</g>
<g opacity="0.15">
<path d="M1375.19 155.145C1372.34 504.825 1067.85 820.039 726.373 819.538C384.894 819.036 -15.0642 504.825 77.5615 155.145C170.187 -194.536 384.894 -479.554 726.373 -509.248C1067.85 -538.942 1378.04 -194.536 1375.19 155.145Z" stroke="url(#paint2_linear_19131_168672)" stroke-opacity="0.4" stroke-width="1.5" stroke-linecap="round"/>
<path d="M1335.23 143.321C1332.97 460.404 1056.55 746.176 746.901 745.778C437.254 745.381 85.1674 460.404 158.572 143.321C231.976 -173.762 437.254 -435.605 746.901 -459.137C1056.55 -482.669 1337.49 -173.762 1335.23 143.321Z" stroke="url(#paint3_linear_19131_168672)" stroke-opacity="0.4" stroke-width="1.5" stroke-linecap="round"/>
<path d="M1285.01 137.409C1283.07 421.895 1034.98 678.274 757.164 677.932C479.35 677.589 166.09 421.895 229.317 137.409C292.544 -147.077 479.35 -382.844 757.164 -403.114C1034.98 -423.384 1286.96 -147.077 1285.01 137.409Z" stroke="url(#paint4_linear_19131_168672)" stroke-opacity="0.4" stroke-width="1.5" stroke-linecap="round"/>
<path d="M1230.69 133.861C1228.94 385.75 1009.3 612.757 763.323 612.449C517.342 612.142 239.166 385.75 295.959 133.861C352.752 -118.027 517.342 -326.52 763.323 -344.727C1009.3 -362.934 1232.44 -118.027 1230.69 133.861Z" stroke="url(#paint5_linear_19131_168672)" stroke-opacity="0.4" stroke-width="1.5" stroke-linecap="round"/>
<path d="M1174.31 131.497C1172.7 350.788 981.576 548.433 767.428 548.15C553.279 547.867 308.252 350.788 360.546 131.497C412.84 -87.7943 553.279 -268.392 767.428 -285.156C981.576 -301.921 1175.92 -87.7943 1174.31 131.497Z" stroke="url(#paint6_linear_19131_168672)" stroke-opacity="0.4" stroke-width="1.5" stroke-linecap="round"/>
<path d="M1116.76 129.808C1115.26 316.501 952.677 484.791 770.361 484.526C588.045 484.261 375.025 316.501 423.961 129.808C472.898 -56.8862 588.045 -209.222 770.361 -224.911C952.677 -240.599 1118.27 -56.8862 1116.76 129.808Z" stroke="url(#paint7_linear_19131_168672)" stroke-opacity="0.4" stroke-width="1.5" stroke-linecap="round"/>
<path d="M1058.48 128.541C1057.05 282.637 923.043 421.575 772.56 421.324C622.077 421.073 440.33 282.637 486.643 128.541C532.956 -25.5557 622.077 -149.395 772.56 -164.243C923.043 -179.09 1059.9 -25.5557 1058.48 128.541Z" stroke="url(#paint8_linear_19131_168672)" stroke-opacity="0.4" stroke-width="1.5" stroke-linecap="round"/>
<path d="M999.705 127.556C998.346 249.055 892.921 358.643 774.271 358.404C655.621 358.165 504.642 249.055 548.836 127.556C593.03 6.05642 655.621 -89.125 774.271 -103.293C892.921 -117.461 1001.07 6.05642 999.705 127.556Z" stroke="url(#paint9_linear_19131_168672)" stroke-opacity="0.4" stroke-width="1.5" stroke-linecap="round"/>
<path d="M940.592 126.767C939.286 215.669 862.456 295.911 775.639 295.681C688.822 295.451 568.25 215.669 610.687 126.767C653.124 37.8657 688.822 -28.5413 775.639 -42.1459C862.456 -55.7506 941.897 37.8657 940.592 126.767Z" stroke="url(#paint10_linear_19131_168672)" stroke-opacity="0.4" stroke-width="1.5" stroke-linecap="round"/>
<path d="M881.229 126.122C879.969 182.427 831.743 233.323 776.759 233.101C721.775 232.879 631.338 182.427 672.289 126.122C713.24 69.8178 721.775 32.272 776.759 19.1438C831.743 6.0155 882.488 69.8178 881.229 126.122Z" stroke="url(#paint11_linear_19131_168672)" stroke-opacity="0.4" stroke-width="1.5" stroke-linecap="round"/>
</g>
</g>
<defs>
<filter id="filter0_d_19131_168672" x="-60" y="380" width="1556.05" height="1556.05" filterUnits="userSpaceOnUse" color-interpolation-filters="sRGB">
<feFlood flood-opacity="0" result="BackgroundImageFix"/>
<feColorMatrix in="SourceAlpha" type="matrix" values="0 0 0 0 0 0 0 0 0 0 0 0 0 0 0 0 0 0 127 0" result="hardAlpha"/>
<feOffset dy="4"/>
<feGaussianBlur stdDeviation="125"/>
<feComposite in2="hardAlpha" operator="out"/>
<feColorMatrix type="matrix" values="0 0 0 0 0 0 0 0 0 0.22335 0 0 0 0 1 0 0 0 1 0"/>
<feBlend mode="normal" in2="BackgroundImageFix" result="effect1_dropShadow_19131_168672"/>
<feBlend mode="normal" in="SourceGraphic" in2="effect1_dropShadow_19131_168672" result="shape"/>
</filter>
<filter id="filter1_f_19131_168672" x="-585" y="134" width="904" height="904" filterUnits="userSpaceOnUse" color-interpolation-filters="sRGB">
<feFlood flood-opacity="0" result="BackgroundImageFix"/>
<feBlend mode="normal" in="SourceGraphic" in2="BackgroundImageFix" result="shape"/>
<feGaussianBlur stdDeviation="100" result="effect1_foregroundBlur_19131_168672"/>
</filter>
<filter id="filter2_f_19131_168672" x="1180" y="43" width="904" height="904" filterUnits="userSpaceOnUse" color-interpolation-filters="sRGB">
<feFlood flood-opacity="0" result="BackgroundImageFix"/>
<feBlend mode="normal" in="SourceGraphic" in2="BackgroundImageFix" result="shape"/>
<feGaussianBlur stdDeviation="100" result="effect1_foregroundBlur_19131_168672"/>
</filter>
<radialGradient id="paint0_radial_19131_168672" cx="0" cy="0" r="1" gradientUnits="userSpaceOnUse" gradientTransform="translate(-133 586) rotate(90) scale(252)">
<stop stop-color="#0F2B63"/>
<stop offset="1" stop-color="#1845A3" stop-opacity="0"/>
</radialGradient>
<radialGradient id="paint1_radial_19131_168672" cx="0" cy="0" r="1" gradientUnits="userSpaceOnUse" gradientTransform="translate(1632 495) rotate(90) scale(252)">
<stop stop-color="#0F2B63"/>
<stop offset="1" stop-color="#1845A3" stop-opacity="0"/>
</radialGradient>
<linearGradient id="paint2_linear_19131_168672" x1="64" y1="-511.04" x2="1375.2" y2="-511.04" gradientUnits="userSpaceOnUse">
<stop stop-color="white"/>
<stop offset="0.9999" stop-color="white" stop-opacity="0.3"/>
</linearGradient>
<linearGradient id="paint3_linear_19131_168672" x1="148.75" y1="-460.401" x2="1335.24" y2="-460.401" gradientUnits="userSpaceOnUse">
<stop stop-color="white"/>
<stop offset="0.9999" stop-color="white" stop-opacity="0.3"/>
</linearGradient>
<linearGradient id="paint4_linear_19131_168672" x1="221.091" y1="-404.165" x2="1285.02" y2="-404.165" gradientUnits="userSpaceOnUse">
<stop stop-color="white"/>
<stop offset="0.9999" stop-color="white" stop-opacity="0.3"/>
</linearGradient>
<linearGradient id="paint5_linear_19131_168672" x1="288.496" y1="-345.682" x2="1230.7" y2="-345.682" gradientUnits="userSpaceOnUse">
<stop stop-color="white"/>
<stop offset="0.9999" stop-color="white" stop-opacity="0.3"/>
</linearGradient>
<linearGradient id="paint6_linear_19131_168672" x1="353.406" y1="-286.08" x2="1174.32" y2="-286.08" gradientUnits="userSpaceOnUse">
<stop stop-color="white"/>
<stop offset="0.9999" stop-color="white" stop-opacity="0.3"/>
</linearGradient>
<linearGradient id="paint7_linear_19131_168672" x1="416.846" y1="-225.849" x2="1116.77" y2="-225.849" gradientUnits="userSpaceOnUse">
<stop stop-color="white"/>
<stop offset="0.9999" stop-color="white" stop-opacity="0.3"/>
</linearGradient>
<linearGradient id="paint8_linear_19131_168672" x1="479.291" y1="-165.239" x2="1058.49" y2="-165.239" gradientUnits="userSpaceOnUse">
<stop stop-color="white"/>
<stop offset="0.9999" stop-color="white" stop-opacity="0.3"/>
</linearGradient>
<linearGradient id="paint9_linear_19131_168672" x1="540.963" y1="-104.406" x2="999.718" y2="-104.406" gradientUnits="userSpaceOnUse">
<stop stop-color="white"/>
<stop offset="0.9999" stop-color="white" stop-opacity="0.3"/>
</linearGradient>
<linearGradient id="paint10_linear_19131_168672" x1="601.906" y1="-43.4707" x2="940.607" y2="-43.4707" gradientUnits="userSpaceOnUse">
<stop stop-color="white"/>
<stop offset="0.9999" stop-color="white" stop-opacity="0.3"/>
</linearGradient>
<linearGradient id="paint11_linear_19131_168672" x1="661.967" y1="17.407" x2="881.252" y2="17.407" gradientUnits="userSpaceOnUse">
<stop stop-color="white"/>
<stop offset="0.9999" stop-color="white" stop-opacity="0.3"/>
</linearGradient>
<clipPath id="clip0_19131_168672">
<rect width="1440" height="1024" fill="white"/>
</clipPath>
</defs>
</svg>
