<svg width="1440" height="851" viewBox="0 0 1440 851" fill="none" xmlns="http://www.w3.org/2000/svg">
<rect opacity="0.1" x="96" width="91" height="65.8563" fill="#122047"/>
<rect opacity="0.1" x="285" width="96" height="65.8563" fill="#122047"/>
<rect opacity="0.1" x="478" width="92" height="65.8563" fill="#122047"/>
<rect opacity="0.1" x="666" width="96" height="65.8563" fill="#122047"/>
<rect opacity="0.1" x="860" width="96" height="65.8563" fill="#122047"/>
<rect opacity="0.1" x="1054" width="96" height="65.8563" fill="#122047"/>
<rect opacity="0.1" x="1246" width="98" height="65.8563" fill="#122047"/>
<rect opacity="0.1" y="65.8562" width="91" height="65.001" fill="#122047"/>
<rect opacity="0.1" x="187" y="65.8562" width="98" height="65.001" fill="#122047"/>
<rect opacity="0.1" x="381" y="65.8562" width="92" height="65.001" fill="#122047"/>
<rect opacity="0.1" x="570" y="65.8562" width="96" height="65.001" fill="#122047"/>
<rect opacity="0.1" x="762" y="65.8562" width="98" height="65.001" fill="#122047"/>
<rect opacity="0.1" x="956" y="65.8562" width="98" height="65.001" fill="#122047"/>
<rect opacity="0.1" x="1150" y="65.8562" width="96" height="65.001" fill="#122047"/>
<rect opacity="0.1" x="1344" y="65.8562" width="96" height="65.001" fill="#122047"/>
<rect opacity="0.1" x="96" y="130.857" width="91" height="65.8563" fill="#122047"/>
<rect opacity="0.1" x="285" y="130.857" width="96" height="65.8563" fill="#122047"/>
<rect opacity="0.1" x="478" y="130.857" width="92" height="65.8563" fill="#122047"/>
<rect opacity="0.1" x="666" y="130.857" width="96" height="65.8563" fill="#122047"/>
<rect opacity="0.1" x="860" y="130.857" width="96" height="65.8563" fill="#122047"/>
<rect opacity="0.1" x="1054" y="130.857" width="96" height="65.8563" fill="#122047"/>
<rect opacity="0.1" x="1246" y="130.857" width="98" height="65.8563" fill="#122047"/>
<rect opacity="0.1" y="196.714" width="91" height="65.001" fill="#122047"/>
<rect opacity="0.1" x="187" y="196.714" width="98" height="65.001" fill="#122047"/>
<rect opacity="0.1" x="381" y="196.714" width="92" height="65.001" fill="#122047"/>
<rect opacity="0.1" x="570" y="196.714" width="96" height="65.001" fill="#122047"/>
<rect opacity="0.1" x="762" y="196.714" width="98" height="65.001" fill="#122047"/>
<rect opacity="0.1" x="956" y="196.714" width="98" height="65.001" fill="#122047"/>
<rect opacity="0.1" x="1150" y="196.714" width="96" height="65.001" fill="#122047"/>
<rect opacity="0.1" x="1344" y="196.714" width="96" height="65.001" fill="#122047"/>
<rect opacity="0.1" x="96" y="261.715" width="91" height="65.8563" fill="#122047"/>
<rect opacity="0.1" x="285" y="261.715" width="96" height="65.8563" fill="#122047"/>
<rect opacity="0.1" x="478" y="261.715" width="92" height="65.8563" fill="#122047"/>
<rect opacity="0.1" x="666" y="261.715" width="96" height="65.8563" fill="#122047"/>
<rect opacity="0.1" x="860" y="261.715" width="96" height="65.8563" fill="#122047"/>
<rect opacity="0.1" x="1054" y="261.715" width="96" height="65.8563" fill="#122047"/>
<rect opacity="0.1" x="1246" y="261.715" width="98" height="65.8563" fill="#122047"/>
<rect opacity="0.1" y="327.571" width="91" height="65.8563" fill="#122047"/>
<rect opacity="0.1" x="187" y="327.571" width="98" height="65.8563" fill="#122047"/>
<rect opacity="0.1" x="381" y="327.571" width="92" height="65.8563" fill="#122047"/>
<rect opacity="0.1" x="570" y="327.571" width="96" height="65.8563" fill="#122047"/>
<rect opacity="0.1" x="762" y="327.571" width="98" height="65.8563" fill="#122047"/>
<rect opacity="0.1" x="956" y="327.571" width="98" height="65.8563" fill="#122047"/>
<rect opacity="0.1" x="1150" y="327.571" width="96" height="65.8563" fill="#122047"/>
<rect opacity="0.1" x="1344" y="327.571" width="96" height="65.8563" fill="#122047"/>
<rect opacity="0.1" x="96" y="393.427" width="91" height="64.1457" fill="#122047"/>
<rect opacity="0.1" x="285" y="393.427" width="96" height="64.1457" fill="#122047"/>
<rect opacity="0.1" x="478" y="393.427" width="92" height="64.1457" fill="#122047"/>
<rect opacity="0.1" x="666" y="393.427" width="96" height="64.1457" fill="#122047"/>
<rect opacity="0.1" x="860" y="393.427" width="96" height="64.1457" fill="#122047"/>
<rect opacity="0.1" x="1054" y="393.427" width="96" height="64.1457" fill="#122047"/>
<rect opacity="0.1" x="1246" y="393.427" width="98" height="64.1457" fill="#122047"/>
<rect opacity="0.1" y="457.573" width="91" height="65.8563" fill="#122047"/>
<rect opacity="0.1" x="187" y="457.573" width="98" height="65.8563" fill="#122047"/>
<rect opacity="0.1" x="381" y="457.573" width="92" height="65.8563" fill="#122047"/>
<rect opacity="0.1" x="570" y="457.573" width="96" height="65.8563" fill="#122047"/>
<rect opacity="0.1" x="762" y="457.573" width="98" height="65.8563" fill="#122047"/>
<rect opacity="0.1" x="956" y="457.573" width="98" height="65.8563" fill="#122047"/>
<rect opacity="0.1" x="1150" y="457.573" width="96" height="65.8563" fill="#122047"/>
<rect opacity="0.1" x="1344" y="457.573" width="96" height="65.8563" fill="#122047"/>
<rect opacity="0.1" x="96" y="523.429" width="91" height="65.8563" fill="#122047"/>
<rect opacity="0.1" x="285" y="523.429" width="96" height="65.8563" fill="#122047"/>
<rect opacity="0.1" x="478" y="523.429" width="92" height="65.8563" fill="#122047"/>
<rect opacity="0.1" x="666" y="523.429" width="96" height="65.8563" fill="#122047"/>
<rect opacity="0.1" x="860" y="523.429" width="96" height="65.8563" fill="#122047"/>
<rect opacity="0.1" x="1054" y="523.429" width="96" height="65.8563" fill="#122047"/>
<rect opacity="0.1" x="1246" y="523.429" width="98" height="65.8563" fill="#122047"/>
<rect opacity="0.1" y="589.285" width="91" height="65.001" fill="#122047"/>
<rect opacity="0.1" x="187" y="589.285" width="98" height="65.001" fill="#122047"/>
<rect opacity="0.1" x="381" y="589.285" width="92" height="65.001" fill="#122047"/>
<rect opacity="0.1" x="570" y="589.285" width="96" height="65.001" fill="#122047"/>
<rect opacity="0.1" x="762" y="589.285" width="98" height="65.001" fill="#122047"/>
<rect opacity="0.1" x="956" y="589.285" width="98" height="65.001" fill="#122047"/>
<rect opacity="0.1" x="1150" y="589.285" width="96" height="65.001" fill="#122047"/>
<rect opacity="0.1" x="1344" y="589.285" width="96" height="65.001" fill="#122047"/>
<rect opacity="0.1" x="96" y="654.286" width="91" height="65.8563" fill="#122047"/>
<rect opacity="0.1" x="285" y="654.286" width="96" height="65.8563" fill="#122047"/>
<rect opacity="0.1" x="478" y="654.286" width="92" height="65.8563" fill="#122047"/>
<rect opacity="0.1" x="666" y="654.286" width="96" height="65.8563" fill="#122047"/>
<rect opacity="0.1" x="860" y="654.286" width="96" height="65.8563" fill="#122047"/>
<rect opacity="0.1" x="1054" y="654.286" width="96" height="65.8563" fill="#122047"/>
<rect opacity="0.1" x="1246" y="654.286" width="98" height="65.8563" fill="#122047"/>
<rect opacity="0.1" y="720.143" width="91" height="65.001" fill="#122047"/>
<rect opacity="0.1" x="187" y="720.143" width="98" height="65.001" fill="#122047"/>
<rect opacity="0.1" x="381" y="720.143" width="92" height="65.001" fill="#122047"/>
<rect opacity="0.1" x="570" y="720.143" width="96" height="65.001" fill="#122047"/>
<rect opacity="0.1" x="762" y="720.143" width="98" height="65.001" fill="#122047"/>
<rect opacity="0.1" x="956" y="720.143" width="98" height="65.001" fill="#122047"/>
<rect opacity="0.1" x="1150" y="720.143" width="96" height="65.001" fill="#122047"/>
<rect opacity="0.1" x="1344" y="720.143" width="96" height="65.001" fill="#122047"/>
<rect opacity="0.1" x="96" y="785.144" width="91" height="65.8563" fill="#122047"/>
<rect opacity="0.1" x="285" y="785.144" width="96" height="65.8563" fill="#122047"/>
<rect opacity="0.1" x="478" y="785.144" width="92" height="65.8563" fill="#122047"/>
<rect opacity="0.1" x="666" y="785.144" width="96" height="65.8563" fill="#122047"/>
<rect opacity="0.1" x="860" y="785.144" width="96" height="65.8563" fill="#122047"/>
<rect opacity="0.1" x="1054" y="785.144" width="96" height="65.8563" fill="#122047"/>
<rect opacity="0.1" x="1246" y="785.144" width="98" height="65.8563" fill="#122047"/>
</svg>
