<svg width="26" height="30" viewBox="0 0 26 30" fill="none" xmlns="http://www.w3.org/2000/svg">
<path d="M21.0717 15.8109C21.0373 12.082 24.2032 10.2679 24.348 10.1834C22.555 7.63458 19.7759 7.28633 18.7993 7.25857C16.4652 7.01907 14.2011 8.62032 13.012 8.62032C11.7993 8.62032 9.96831 7.28171 7.99493 7.32104C5.45552 7.35922 3.07987 8.79271 1.77694 11.0187C-0.911987 15.5575 1.09343 22.2275 3.66963 25.8962C4.95832 27.693 6.46416 29.6992 8.43517 29.6286C10.3635 29.5511 11.0837 28.43 13.4108 28.43C15.7164 28.43 16.3928 29.6286 18.4029 29.5835C20.4724 29.5511 21.7754 27.7786 23.019 25.9657C24.5082 23.9063 25.1063 21.8781 25.13 21.774C25.0813 21.7578 21.1109 20.2803 21.0717 15.8109Z" fill="white"/>
<path d="M17.2744 4.84512C18.3116 3.58055 19.0212 1.86013 18.8242 0.114258C17.3231 0.179048 15.4458 1.12661 14.3648 2.36341C13.4084 3.45328 12.554 5.23965 12.7747 6.91957C14.4609 7.04221 16.1922 6.09002 17.2744 4.84512Z" fill="white"/>
</svg>
