<svg width="28" height="28" viewBox="0 0 28 28" fill="none" xmlns="http://www.w3.org/2000/svg">
<path d="M24.4335 19.6407C23.7941 15.8239 21.9666 12.3063 19.2115 9.58867C18.6083 9.00184 18.3073 8.709 17.6412 8.43834C16.975 8.1665 16.4022 8.1665 15.2577 8.1665H12.7423C11.5978 8.1665 11.025 8.1665 10.3588 8.43834C9.69383 8.709 9.3905 9.00184 8.7885 9.58867C6.03337 12.3063 4.20595 15.8239 3.5665 19.6407C2.99833 23.0683 6.16 25.6665 9.69267 25.6665H18.3073C21.8412 25.6665 25.004 23.0683 24.4323 19.6407" stroke="white" stroke-width="1.5" stroke-linecap="round" stroke-linejoin="round"/>
<path d="M11.8125 20.4166V13.4166M14 13.4166V11.6666M14 22.1666V20.4166M11.8125 16.9166H16.1875M16.1875 16.9166C16.912 16.9166 17.5 17.5046 17.5 18.2291V19.1041C17.5 19.8286 16.912 20.4166 16.1875 20.4166H10.5M16.1875 16.9166C16.912 16.9166 17.5 16.3286 17.5 15.6041V14.7291C17.5 14.0046 16.912 13.4166 16.1875 13.4166H10.5M8.4665 5.18342C8.225 4.83342 7.87617 4.35742 8.59717 4.25009C9.338 4.13809 10.1068 4.64442 10.8605 4.63509C11.5407 4.62459 11.8872 4.32242 12.2605 3.89075C12.6525 3.43692 13.2592 2.33325 14 2.33325C14.7408 2.33325 15.3475 3.43692 15.7395 3.89075C16.1128 4.32242 16.4593 4.62575 17.1395 4.63392C17.8932 4.64559 18.662 4.13809 19.4028 4.24892C20.1238 4.35742 19.775 4.83225 19.5335 5.18225L18.4462 6.76775C17.9795 7.44442 17.7473 7.78275 17.2597 7.97525C16.772 8.16775 16.1432 8.16659 14.8843 8.16659H13.1157C11.8557 8.16659 11.2268 8.16659 10.7403 7.97525C10.2538 7.78392 10.0205 7.44325 9.55383 6.76659L8.4665 5.18342Z" stroke="white" stroke-width="1.5" stroke-linecap="round" stroke-linejoin="round"/>
</svg>
