<svg width="610" height="425" viewBox="0 0 610 425" fill="none" xmlns="http://www.w3.org/2000/svg">
<path d="M28.095 376.699C28.0105 376.694 27.9278 376.672 27.8516 376.635C27.7754 376.598 27.7072 376.547 27.651 376.483C27.5948 376.42 27.5517 376.346 27.5241 376.266C27.4965 376.186 27.485 376.101 27.4902 376.017C27.4902 375.927 27.6189 373.662 28.1851 369.48C28.1944 369.396 28.2208 369.315 28.2626 369.241C28.3045 369.168 28.3609 369.104 28.4284 369.054C28.496 369.003 28.5732 368.967 28.6553 368.947C28.7374 368.927 28.8226 368.925 28.9057 368.939C28.99 368.949 29.0716 368.975 29.1455 369.017C29.2193 369.058 29.284 369.115 29.3357 369.182C29.3874 369.249 29.4249 369.326 29.4461 369.408C29.4673 369.49 29.4717 369.576 29.4591 369.66C28.9057 373.778 28.7642 376.094 28.7642 376.094C28.7542 376.262 28.6785 376.42 28.5533 376.533C28.4282 376.646 28.2636 376.706 28.095 376.699ZM29.7808 363.831H29.665C29.5821 363.818 29.5025 363.789 29.4312 363.745C29.3598 363.701 29.2982 363.643 29.2501 363.574C29.2019 363.506 29.1682 363.428 29.151 363.346C29.1339 363.264 29.1336 363.179 29.1502 363.097C29.4977 361.025 29.8966 358.876 30.3341 356.727C30.351 356.643 30.3844 356.562 30.4323 356.491C30.4803 356.419 30.5419 356.358 30.6136 356.31C30.6853 356.262 30.7657 356.229 30.8502 356.212C30.9347 356.196 31.0217 356.196 31.1062 356.213C31.1907 356.229 31.2711 356.263 31.3427 356.311C31.4142 356.359 31.4757 356.42 31.5235 356.492C31.5713 356.564 31.6045 356.644 31.6212 356.729C31.6379 356.813 31.6379 356.9 31.621 356.985C31.1963 359.121 30.7974 361.257 30.4371 363.316C30.4064 363.464 30.3231 363.597 30.2026 363.689C30.082 363.781 29.9323 363.827 29.7808 363.818V363.831ZM32.3544 351.181H32.2C32.0348 351.141 31.892 351.038 31.8028 350.893C31.7136 350.749 31.6852 350.574 31.7239 350.409C32.1872 348.414 32.689 346.317 33.2552 344.129C33.2762 344.047 33.3132 343.97 33.364 343.902C33.4149 343.835 33.4786 343.778 33.5515 343.735C33.6245 343.692 33.7052 343.663 33.789 343.652C33.8729 343.64 33.9582 343.645 34.0402 343.666C34.204 343.711 34.3439 343.819 34.4303 343.965C34.5167 344.111 34.5429 344.286 34.5034 344.451C33.9372 346.626 33.4354 348.71 32.9721 350.692C32.9349 350.83 32.8527 350.952 32.7385 351.038C32.6243 351.125 32.4847 351.17 32.3416 351.168L32.3544 351.181ZM35.5586 338.699H35.3785C35.2964 338.677 35.2197 338.638 35.1529 338.586C35.086 338.533 35.0305 338.468 34.9897 338.393C34.9488 338.319 34.9234 338.237 34.915 338.152C34.9067 338.067 34.9155 337.982 34.941 337.901C35.4943 335.906 36.112 333.835 36.7554 331.711C36.8086 331.549 36.9231 331.414 37.0745 331.334C37.2259 331.255 37.4023 331.238 37.5661 331.287C37.7275 331.337 37.8626 331.449 37.9421 331.599C38.0216 331.748 38.0391 331.922 37.9908 332.085C37.3473 334.208 36.7039 336.267 36.1763 338.248C36.1304 338.378 36.0448 338.49 35.9317 338.569C35.8185 338.647 35.6835 338.688 35.5458 338.686L35.5586 338.699ZM39.3291 326.384C39.2653 326.396 39.1998 326.396 39.136 326.384C39.0548 326.359 38.9794 326.318 38.9143 326.264C38.8493 326.209 38.7959 326.142 38.7575 326.066C38.719 325.991 38.6963 325.908 38.6906 325.823C38.6848 325.738 38.6963 325.653 38.7242 325.573C39.3848 323.583 40.084 321.55 40.8218 319.474C40.8774 319.314 40.9936 319.183 41.1453 319.108C41.297 319.033 41.472 319.021 41.6325 319.075C41.7931 319.133 41.9247 319.252 41.9991 319.405C42.0736 319.559 42.0852 319.736 42.0314 319.898C41.2936 321.966 40.5987 323.99 39.9467 325.972C39.8946 326.095 39.8063 326.199 39.6937 326.27C39.581 326.341 39.4494 326.376 39.3162 326.371L39.3291 326.384ZM43.6399 314.249C43.5638 314.267 43.4845 314.267 43.4083 314.249C43.329 314.221 43.2562 314.176 43.1943 314.119C43.1324 314.062 43.0825 313.993 43.0477 313.916C43.0129 313.839 42.9939 313.756 42.9917 313.672C42.9896 313.588 43.0043 313.504 43.0351 313.426C43.7815 311.461 44.5664 309.458 45.39 307.416C45.4129 307.327 45.4544 307.245 45.5118 307.173C45.5692 307.102 45.6412 307.044 45.7228 307.003C45.8045 306.961 45.8941 306.938 45.9855 306.934C46.0769 306.93 46.1681 306.946 46.2531 306.98C46.338 307.014 46.4146 307.066 46.4779 307.132C46.5411 307.198 46.5896 307.277 46.6199 307.363C46.6503 307.45 46.6619 307.542 46.654 307.633C46.646 307.724 46.6187 307.812 46.5739 307.892C45.7632 309.925 44.9782 311.92 44.2447 313.876C44.1864 313.988 44.0974 314.082 43.9881 314.146C43.8787 314.209 43.7536 314.241 43.6271 314.236L43.6399 314.249ZM48.4398 302.294C48.3593 302.313 48.2758 302.313 48.1953 302.294C48.1167 302.263 48.0452 302.217 47.9849 302.158C47.9246 302.099 47.8769 302.028 47.8445 301.95C47.812 301.872 47.7956 301.788 47.7962 301.704C47.7968 301.619 47.8144 301.536 47.8479 301.458C48.6843 299.515 49.5336 297.598 50.4215 295.552C50.4551 295.474 50.5037 295.403 50.5647 295.344C50.6256 295.285 50.6976 295.239 50.7766 295.208C50.8555 295.176 50.9398 295.161 51.0246 295.163C51.1094 295.164 51.1931 295.183 51.2708 295.217C51.4268 295.29 51.5479 295.421 51.6081 295.582C51.6683 295.743 51.6627 295.922 51.5925 296.079C50.7346 298.061 49.8768 300.021 49.0189 301.96C48.9607 302.064 48.8742 302.149 48.7695 302.206C48.6647 302.263 48.5459 302.289 48.4269 302.282L48.4398 302.294ZM53.7158 290.559C53.6266 290.576 53.5348 290.576 53.4456 290.559C53.3683 290.523 53.2989 290.472 53.2415 290.409C53.184 290.346 53.1397 290.272 53.1109 290.192C53.0822 290.112 53.0697 290.027 53.0741 289.942C53.0785 289.857 53.0998 289.773 53.1367 289.696C54.0375 287.792 54.9769 285.836 55.942 283.906C56.0194 283.754 56.1525 283.639 56.3133 283.584C56.4741 283.528 56.6501 283.538 56.8042 283.61C56.8803 283.647 56.9484 283.699 57.0045 283.762C57.0606 283.825 57.1037 283.899 57.1312 283.979C57.1587 284.059 57.1701 284.144 57.1648 284.229C57.1594 284.313 57.1375 284.396 57.1001 284.472C56.1393 286.411 55.2042 288.337 54.2949 290.25C54.2333 290.349 54.1454 290.429 54.0408 290.482C53.9363 290.534 53.8193 290.556 53.7029 290.546L53.7158 290.559ZM59.4422 278.977C59.3385 278.978 59.2364 278.951 59.1462 278.9C58.9947 278.823 58.8798 278.689 58.8268 278.527C58.7737 278.366 58.7868 278.19 58.8631 278.038C59.854 276.159 60.8577 274.254 61.9 272.35C61.9406 272.276 61.9954 272.21 62.0613 272.157C62.1272 272.104 62.203 272.064 62.2842 272.04C62.3655 272.016 62.4507 272.009 62.5349 272.018C62.6191 272.027 62.7007 272.052 62.7751 272.093C62.8494 272.133 62.9151 272.188 62.9682 272.254C63.0214 272.32 63.0611 272.396 63.085 272.477C63.1089 272.558 63.1165 272.643 63.1075 272.727C63.0985 272.812 63.073 272.893 63.0324 272.968C61.9901 274.872 60.9864 276.751 60.0084 278.63C59.959 278.743 59.8782 278.839 59.7755 278.908C59.6729 278.976 59.5527 279.014 59.4293 279.016L59.4422 278.977ZM65.5803 267.679C65.4668 267.68 65.3553 267.648 65.2586 267.589C65.185 267.547 65.1204 267.492 65.0688 267.425C65.0171 267.358 64.9793 267.282 64.9577 267.2C64.9361 267.119 64.9311 267.033 64.943 266.95C64.9549 266.866 64.9835 266.786 65.027 266.714C66.0693 264.874 67.1503 263.008 68.2698 261.142C68.3122 261.069 68.3687 261.006 68.4359 260.955C68.5031 260.905 68.5798 260.869 68.6613 260.848C68.7428 260.828 68.8276 260.824 68.9106 260.837C68.9937 260.85 69.0733 260.879 69.1449 260.923C69.2188 260.964 69.2835 261.02 69.3349 261.087C69.3864 261.154 69.4235 261.231 69.444 261.313C69.4645 261.395 69.468 261.48 69.4541 261.564C69.4403 261.647 69.4095 261.727 69.3636 261.798C68.2698 263.664 67.1889 265.517 66.1465 267.357C66.0874 267.454 66.0043 267.535 65.9052 267.591C65.8061 267.648 65.6943 267.678 65.5803 267.679ZM72.156 256.612C72.0343 256.613 71.9145 256.582 71.8086 256.522C71.6659 256.429 71.5648 256.285 71.5264 256.12C71.488 255.954 71.5153 255.78 71.6027 255.634C72.718 253.815 73.8675 251.997 75.0514 250.178C75.0969 250.107 75.1563 250.045 75.226 249.998C75.2958 249.95 75.3744 249.917 75.4572 249.9C75.54 249.883 75.6254 249.883 75.7082 249.9C75.791 249.917 75.8696 249.95 75.9393 249.998C76.0825 250.09 76.1832 250.235 76.2194 250.402C76.2555 250.568 76.2242 250.742 76.1323 250.886C74.9656 252.696 73.8203 254.502 72.6965 256.303C72.647 256.405 72.5703 256.492 72.475 256.553C72.3797 256.614 72.2693 256.648 72.156 256.651V256.612ZM79.1178 245.803C79.0014 245.802 78.8875 245.769 78.7882 245.709C78.6889 245.648 78.6078 245.562 78.5537 245.459C78.4996 245.356 78.4744 245.24 78.4808 245.124C78.4872 245.008 78.525 244.895 78.5902 244.799C79.7741 243.032 80.9837 241.256 82.219 239.472C82.3197 239.334 82.47 239.241 82.6381 239.212C82.8063 239.183 82.979 239.221 83.1198 239.317C83.2567 239.415 83.3496 239.563 83.3784 239.73C83.4073 239.896 83.3699 240.066 83.2742 240.205C81.9874 241.981 80.8293 243.757 79.6582 245.507C79.5993 245.597 79.5191 245.671 79.4249 245.722C79.3307 245.774 79.2252 245.801 79.1178 245.803ZM86.4656 235.238C86.3324 235.237 86.2025 235.197 86.0924 235.122C85.9567 235.02 85.866 234.868 85.8396 234.7C85.8132 234.532 85.8531 234.36 85.9508 234.221C87.2377 232.497 88.5245 230.76 89.8113 229.074C89.9157 228.94 90.0678 228.852 90.2358 228.828C90.4037 228.804 90.5744 228.846 90.7121 228.945C90.7811 228.995 90.8394 229.058 90.8835 229.131C90.9275 229.203 90.9564 229.284 90.9685 229.368C90.9805 229.452 90.9754 229.538 90.9534 229.62C90.9315 229.702 90.8932 229.779 90.8408 229.846C89.5539 231.583 88.2671 233.308 86.9803 234.993C86.9239 235.079 86.8476 235.149 86.7579 235.199C86.6682 235.248 86.5679 235.275 86.4656 235.276V235.238ZM94.1865 224.943C94.0405 224.948 93.898 224.898 93.7876 224.802C93.6531 224.697 93.5654 224.544 93.5436 224.375C93.5219 224.206 93.568 224.036 93.6718 223.901C94.9586 222.228 96.2455 220.542 97.6738 218.844C97.7271 218.778 97.7928 218.723 97.8672 218.682C97.9416 218.642 98.0232 218.616 98.1075 218.608C98.1917 218.599 98.2769 218.606 98.3581 218.63C98.4394 218.654 98.5151 218.694 98.581 218.747C98.6469 218.8 98.7017 218.866 98.7422 218.941C98.7828 219.015 98.8082 219.097 98.8172 219.181C98.8261 219.265 98.8184 219.35 98.7945 219.431C98.7705 219.513 98.7308 219.588 98.6776 219.654C97.3135 221.34 95.9881 223.013 94.6884 224.699C94.6318 224.781 94.5572 224.849 94.4702 224.898C94.3832 224.947 94.2862 224.976 94.1865 224.982V224.943ZM102.242 214.919C102.12 214.918 102.001 214.882 101.899 214.816C101.796 214.75 101.715 214.657 101.664 214.546C101.612 214.435 101.594 214.313 101.609 214.192C101.625 214.071 101.675 213.957 101.753 213.864C103.117 212.229 104.494 210.582 105.91 208.948C106.023 208.82 106.183 208.742 106.353 208.73C106.524 208.718 106.693 208.773 106.823 208.884C106.883 208.942 106.931 209.012 106.963 209.09C106.996 209.167 107.012 209.25 107.012 209.334C107.012 209.418 106.996 209.501 106.963 209.578C106.931 209.656 106.883 209.726 106.823 209.784C105.421 211.419 104.031 213.053 102.68 214.687C102.57 214.819 102.413 214.902 102.242 214.919ZM110.632 205.165C110.477 205.162 110.328 205.108 110.208 205.01C110.089 204.888 110.022 204.724 110.022 204.553C110.022 204.383 110.089 204.219 110.208 204.097C111.623 202.501 113.064 200.918 114.531 199.323C114.589 199.26 114.658 199.209 114.735 199.174C114.812 199.138 114.895 199.118 114.98 199.114C115.065 199.11 115.15 199.124 115.229 199.153C115.309 199.182 115.382 199.226 115.445 199.284C115.507 199.341 115.558 199.411 115.594 199.488C115.63 199.565 115.65 199.648 115.653 199.733C115.657 199.818 115.644 199.902 115.615 199.982C115.586 200.062 115.541 200.135 115.484 200.198C114.017 201.785 112.58 203.372 111.173 204.959C111.107 205.041 111.022 205.106 110.926 205.149C110.83 205.191 110.724 205.21 110.619 205.203L110.632 205.165ZM119.344 195.707C119.181 195.703 119.025 195.639 118.906 195.526C118.846 195.467 118.798 195.395 118.766 195.317C118.733 195.239 118.716 195.154 118.716 195.07C118.716 194.985 118.733 194.901 118.766 194.822C118.798 194.744 118.846 194.673 118.906 194.613C120.373 193.069 121.866 191.524 123.385 189.98C123.442 189.912 123.512 189.857 123.592 189.818C123.672 189.779 123.758 189.757 123.847 189.753C123.935 189.749 124.024 189.763 124.107 189.795C124.189 189.826 124.265 189.875 124.328 189.937C124.391 189.999 124.441 190.074 124.474 190.156C124.506 190.239 124.522 190.327 124.519 190.415C124.516 190.504 124.495 190.591 124.457 190.671C124.419 190.751 124.365 190.823 124.298 190.881C122.793 192.425 121.3 193.969 119.846 195.501C119.787 195.577 119.711 195.639 119.623 195.681C119.536 195.724 119.441 195.746 119.344 195.745V195.707ZM128.352 186.519C128.185 186.515 128.025 186.451 127.901 186.338C127.841 186.279 127.793 186.207 127.761 186.129C127.728 186.051 127.711 185.967 127.711 185.882C127.711 185.797 127.728 185.713 127.761 185.634C127.793 185.556 127.841 185.485 127.901 185.425C129.42 183.923 130.96 182.426 132.521 180.934C132.644 180.815 132.807 180.749 132.978 180.749C133.148 180.749 133.312 180.815 133.435 180.934C133.495 180.994 133.543 181.065 133.576 181.143C133.608 181.222 133.625 181.306 133.625 181.391C133.625 181.476 133.608 181.56 133.576 181.638C133.543 181.716 133.495 181.788 133.435 181.847C131.882 183.34 130.351 184.833 128.841 186.326C128.786 186.407 128.714 186.475 128.629 186.524C128.544 186.573 128.449 186.602 128.352 186.609V186.519ZM137.656 177.627C137.528 177.625 137.404 177.585 137.299 177.513C137.194 177.44 137.113 177.338 137.066 177.22C137.019 177.101 137.009 176.971 137.036 176.847C137.063 176.722 137.126 176.608 137.218 176.52C138.771 175.07 140.354 173.62 141.966 172.17C142.026 172.11 142.097 172.062 142.176 172.03C142.254 171.997 142.338 171.98 142.423 171.98C142.508 171.98 142.592 171.997 142.671 172.03C142.749 172.062 142.82 172.11 142.88 172.17C142.998 172.291 143.064 172.452 143.064 172.621C143.064 172.789 142.998 172.951 142.88 173.071C141.272 174.512 139.702 175.967 138.145 177.408C138.086 177.486 138.01 177.55 137.923 177.594C137.836 177.639 137.74 177.663 137.643 177.665L137.656 177.627ZM147.217 169.031C147.085 169.032 146.955 168.993 146.846 168.918C146.737 168.843 146.654 168.737 146.608 168.613C146.561 168.489 146.554 168.354 146.587 168.227C146.62 168.099 146.692 167.984 146.792 167.898C148.388 166.496 150.022 165.093 151.669 163.69C151.734 163.635 151.809 163.594 151.891 163.568C151.972 163.542 152.057 163.532 152.142 163.54C152.227 163.547 152.309 163.571 152.385 163.61C152.461 163.649 152.528 163.702 152.583 163.767C152.638 163.833 152.679 163.908 152.705 163.989C152.731 164.07 152.741 164.155 152.733 164.24C152.726 164.325 152.702 164.408 152.663 164.483C152.624 164.559 152.571 164.626 152.506 164.681C150.858 166.071 149.237 167.473 147.628 168.863C147.521 168.98 147.375 169.054 147.217 169.069V169.031ZM157.022 160.705C156.927 160.705 156.833 160.684 156.746 160.644C156.659 160.604 156.582 160.546 156.52 160.473C156.414 160.341 156.363 160.173 156.38 160.004C156.397 159.836 156.48 159.68 156.611 159.572C158.258 158.208 159.931 156.87 161.616 155.519C161.681 155.464 161.756 155.423 161.836 155.398C161.917 155.373 162.002 155.365 162.086 155.373C162.17 155.382 162.251 155.407 162.325 155.447C162.399 155.488 162.465 155.543 162.517 155.609C162.625 155.743 162.675 155.913 162.658 156.084C162.642 156.255 162.559 156.412 162.427 156.523C160.741 157.809 159.068 159.212 157.434 160.563C157.324 160.673 157.177 160.737 157.022 160.743V160.705ZM167.072 152.688C166.974 152.689 166.877 152.666 166.79 152.621C166.702 152.576 166.627 152.511 166.571 152.43C166.465 152.297 166.417 152.128 166.436 151.959C166.456 151.79 166.541 151.636 166.674 151.53C168.389 150.217 170.105 148.93 171.821 147.669C171.888 147.619 171.965 147.582 172.047 147.561C172.129 147.54 172.214 147.535 172.298 147.547C172.382 147.559 172.462 147.587 172.535 147.63C172.607 147.673 172.671 147.73 172.722 147.798C172.772 147.866 172.809 147.942 172.83 148.024C172.851 148.106 172.856 148.191 172.844 148.275C172.832 148.359 172.804 148.439 172.761 148.512C172.717 148.584 172.661 148.648 172.593 148.699C170.877 149.994 169.161 151.281 167.446 152.559C167.342 152.653 167.211 152.712 167.072 152.726V152.688ZM177.367 144.967C177.233 144.964 177.103 144.92 176.996 144.84C176.888 144.76 176.808 144.648 176.767 144.521C176.726 144.393 176.726 144.256 176.767 144.129C176.807 144.001 176.887 143.889 176.994 143.809C178.705 142.522 180.455 141.235 182.206 140.038C182.345 139.941 182.517 139.901 182.685 139.927C182.853 139.954 183.004 140.044 183.106 140.18C183.156 140.249 183.191 140.327 183.21 140.41C183.229 140.493 183.231 140.579 183.217 140.662C183.202 140.746 183.172 140.826 183.126 140.898C183.081 140.97 183.022 141.032 182.952 141.081C181.202 142.367 179.465 143.654 177.805 144.838C177.741 144.892 177.667 144.933 177.588 144.957C177.508 144.982 177.424 144.989 177.341 144.98L177.367 144.967ZM187.855 137.503C187.751 137.506 187.649 137.483 187.556 137.436C187.464 137.388 187.385 137.319 187.327 137.233C187.231 137.092 187.193 136.92 187.222 136.751C187.251 136.583 187.344 136.433 187.482 136.332C189.245 135.123 191.007 133.913 192.809 132.703C192.879 132.656 192.958 132.623 193.041 132.606C193.124 132.589 193.209 132.589 193.292 132.605C193.375 132.621 193.454 132.654 193.525 132.7C193.595 132.747 193.656 132.807 193.703 132.877C193.751 132.947 193.784 133.026 193.801 133.109C193.817 133.192 193.818 133.277 193.802 133.36C193.786 133.443 193.753 133.522 193.707 133.593C193.66 133.663 193.6 133.724 193.53 133.771C191.745 134.981 189.974 136.191 188.215 137.4C188.103 137.481 187.967 137.522 187.829 137.516L187.855 137.503ZM198.523 130.336C198.415 130.334 198.31 130.307 198.215 130.255C198.121 130.203 198.041 130.129 197.982 130.04C197.89 129.896 197.859 129.722 197.895 129.556C197.931 129.389 198.032 129.244 198.175 129.152C199.959 127.976 201.765 126.814 203.593 125.664C203.736 125.573 203.91 125.541 204.076 125.577C204.243 125.614 204.388 125.714 204.481 125.857C204.568 126.003 204.595 126.177 204.557 126.343C204.518 126.509 204.417 126.653 204.275 126.745C202.456 127.904 200.659 129.066 198.883 130.233C198.768 130.307 198.634 130.347 198.497 130.349L198.523 130.336ZM209.383 123.438C209.273 123.437 209.164 123.407 209.068 123.354C208.971 123.3 208.89 123.223 208.83 123.129C208.786 123.057 208.756 122.976 208.743 122.892C208.73 122.808 208.734 122.722 208.754 122.64C208.775 122.557 208.811 122.48 208.862 122.411C208.912 122.343 208.976 122.285 209.049 122.242C210.859 121.118 212.691 120.002 214.544 118.896C214.687 118.834 214.847 118.826 214.996 118.874C215.144 118.922 215.27 119.022 215.351 119.155C215.431 119.289 215.46 119.447 215.432 119.601C215.404 119.754 215.322 119.892 215.2 119.99L209.718 123.335C209.612 123.409 209.487 123.45 209.358 123.451L209.383 123.438ZM220.411 116.811C220.297 116.811 220.185 116.782 220.086 116.725C219.986 116.669 219.904 116.588 219.845 116.489C219.802 116.417 219.773 116.337 219.761 116.253C219.749 116.17 219.754 116.084 219.776 116.003C219.798 115.921 219.835 115.845 219.887 115.778C219.939 115.711 220.003 115.656 220.077 115.614C221.921 114.533 223.783 113.461 225.662 112.397C225.734 112.354 225.814 112.325 225.898 112.313C225.982 112.301 226.067 112.306 226.148 112.328C226.23 112.35 226.306 112.387 226.373 112.439C226.44 112.491 226.495 112.555 226.537 112.629C226.621 112.779 226.642 112.957 226.596 113.123C226.551 113.289 226.441 113.431 226.292 113.517C224.422 114.572 222.569 115.64 220.733 116.721C220.631 116.79 220.509 116.826 220.386 116.824L220.411 116.811ZM231.581 110.454C231.468 110.451 231.357 110.418 231.26 110.36C231.163 110.301 231.083 110.218 231.028 110.12C230.985 110.046 230.957 109.965 230.946 109.881C230.935 109.797 230.941 109.712 230.964 109.63C230.987 109.548 231.026 109.472 231.079 109.406C231.132 109.34 231.198 109.285 231.272 109.245L236.921 106.156C237.072 106.074 237.248 106.055 237.412 106.104C237.576 106.152 237.715 106.263 237.797 106.414C237.878 106.564 237.897 106.74 237.849 106.904C237.801 107.068 237.689 107.207 237.539 107.289C235.635 108.318 233.756 109.335 231.903 110.364C231.808 110.43 231.696 110.465 231.581 110.467V110.454ZM242.918 104.355C242.799 104.355 242.682 104.322 242.58 104.261C242.478 104.2 242.395 104.112 242.339 104.007C242.262 103.857 242.247 103.682 242.297 103.521C242.348 103.359 242.46 103.224 242.609 103.145C244.501 102.154 246.47 101.163 248.336 100.185C248.488 100.109 248.664 100.096 248.825 100.149C248.987 100.202 249.121 100.317 249.198 100.468C249.237 100.543 249.261 100.625 249.269 100.71C249.276 100.794 249.266 100.879 249.239 100.96C249.213 101.04 249.171 101.114 249.115 101.178C249.059 101.242 248.991 101.294 248.915 101.331C246.997 102.309 245.054 103.299 243.214 104.277C243.117 104.336 243.006 104.367 242.892 104.367L242.918 104.355ZM254.371 98.5124C254.23 98.5076 254.094 98.4564 253.984 98.3667C253.875 98.2769 253.798 98.1537 253.766 98.016C253.734 97.8783 253.748 97.7338 253.806 97.6049C253.864 97.476 253.963 97.3698 254.088 97.3028C256.009 96.3505 257.94 95.4069 259.878 94.4718C259.954 94.4347 260.035 94.4129 260.119 94.4078C260.202 94.4026 260.286 94.4141 260.365 94.4417C260.444 94.4692 260.517 94.5123 260.579 94.5682C260.642 94.6242 260.692 94.692 260.728 94.7677C260.767 94.8434 260.79 94.9262 260.797 95.0112C260.803 95.0962 260.792 95.1815 260.764 95.2621C260.736 95.3427 260.693 95.4168 260.636 95.48C260.579 95.5432 260.509 95.5942 260.432 95.6299L254.667 98.4481C254.569 98.5026 254.457 98.5293 254.345 98.5253L254.371 98.5124ZM265.952 92.9276C265.831 92.931 265.712 92.8986 265.609 92.8346C265.506 92.7705 265.424 92.6775 265.373 92.5673C265.336 92.4905 265.315 92.4071 265.311 92.322C265.306 92.2369 265.319 92.1518 265.347 92.0716C265.376 91.9914 265.421 91.9177 265.478 91.8548C265.535 91.7919 265.605 91.741 265.682 91.7051L271.524 89.0027C271.602 88.9618 271.687 88.9372 271.775 88.9304C271.862 88.9237 271.95 88.935 272.034 88.9635C272.117 88.9921 272.193 89.0374 272.258 89.0965C272.323 89.1557 272.375 89.2276 272.411 89.3077C272.447 89.3877 272.466 89.4744 272.468 89.5622C272.469 89.65 272.452 89.7372 272.419 89.8183C272.385 89.8995 272.335 89.9729 272.272 90.034C272.209 90.0951 272.134 90.1427 272.052 90.1738C270.096 91.0316 268.153 91.9324 266.223 92.8761C266.134 92.918 266.037 92.94 265.939 92.9404L265.952 92.9276ZM277.65 87.5872C277.506 87.5823 277.368 87.5293 277.258 87.4367C277.148 87.3442 277.072 87.2175 277.042 87.0768C277.013 86.936 277.031 86.7894 277.094 86.6604C277.158 86.5313 277.263 86.4273 277.392 86.3648C279.348 85.4897 281.253 84.6404 283.286 83.7911C283.443 83.7228 283.621 83.7197 283.78 83.7825C283.939 83.8452 284.067 83.9687 284.135 84.1257C284.203 84.2827 284.207 84.4603 284.144 84.6196C284.081 84.7789 283.958 84.9067 283.801 84.975C281.819 85.8329 279.859 86.6908 277.92 87.5486C277.83 87.5861 277.734 87.6037 277.637 87.6001L277.65 87.5872ZM289.463 82.4399C289.335 82.4429 289.209 82.4061 289.103 82.3346C288.997 82.2632 288.916 82.1606 288.871 82.041C288.837 81.9634 288.82 81.8799 288.819 81.7954C288.819 81.711 288.835 81.6272 288.867 81.5492C288.9 81.4712 288.948 81.4005 289.008 81.3413C289.068 81.2821 289.14 81.2356 289.218 81.2046C291.183 80.3467 293.164 79.5274 295.163 78.7467C295.241 78.7132 295.324 78.6957 295.409 78.6951C295.493 78.6945 295.577 78.7109 295.655 78.7433C295.733 78.7757 295.804 78.8235 295.863 78.8838C295.922 78.944 295.969 79.0156 296 79.0942C296.064 79.2512 296.063 79.4272 295.998 79.5839C295.933 79.7405 295.809 79.8651 295.652 79.9306C293.653 80.737 291.672 81.5563 289.707 82.3884C289.644 82.4431 289.569 82.4827 289.488 82.5043L289.463 82.4399ZM301.366 77.5757C301.239 77.5734 301.116 77.5346 301.011 77.4638C300.906 77.393 300.824 77.2933 300.774 77.1768C300.743 77.0982 300.727 77.0142 300.728 76.9297C300.729 76.8451 300.747 76.7615 300.781 76.6839C300.814 76.6062 300.863 76.5358 300.923 76.4769C300.984 76.418 301.056 76.3716 301.134 76.3404C303.116 75.5425 305.111 74.7704 307.131 73.9855C307.29 73.9268 307.465 73.9332 307.619 74.003C307.773 74.0729 307.894 74.2006 307.954 74.3587C307.986 74.4363 308.001 74.5194 308 74.6031C307.998 74.6867 307.98 74.7692 307.947 74.8459C307.913 74.9226 307.865 74.9918 307.804 75.0495C307.744 75.1072 307.672 75.1524 307.594 75.1822C305.587 75.9672 303.592 76.7393 301.61 77.5371C301.532 77.5872 301.444 77.6221 301.353 77.6401L301.366 77.5757ZM313.372 72.9431C313.241 72.9396 313.113 72.8974 313.006 72.8219C312.898 72.7463 312.815 72.6408 312.767 72.5185C312.708 72.3597 312.715 72.1843 312.785 72.0301C312.855 71.8759 312.982 71.7555 313.14 71.6949L319.176 69.4558C319.336 69.3979 319.513 69.406 319.667 69.4784C319.822 69.5508 319.941 69.6815 319.999 69.8419C320.03 69.9203 320.045 70.0042 320.042 70.0885C320.04 70.1727 320.021 70.2557 319.986 70.3325C319.952 70.4093 319.902 70.4783 319.84 70.5355C319.778 70.5927 319.705 70.6369 319.626 70.6654C317.593 71.4032 315.581 72.1496 313.591 72.9045C313.522 72.9548 313.443 72.9899 313.359 73.0075L313.372 72.9431ZM325.455 68.5293C325.321 68.5303 325.19 68.4884 325.081 68.4097C324.972 68.331 324.892 68.2196 324.85 68.0918C324.82 68.0134 324.806 67.9296 324.809 67.8456C324.812 67.7616 324.833 67.6792 324.869 67.6033C324.905 67.5274 324.956 67.4596 325.019 67.4042C325.083 67.3489 325.156 67.3069 325.236 67.2811C327.244 66.5605 329.277 65.8527 331.31 65.145C331.481 65.0886 331.667 65.1024 331.827 65.1833C331.988 65.2641 332.11 65.4054 332.166 65.5761C332.222 65.7467 332.209 65.9327 332.128 66.0932C332.047 66.2537 331.906 66.3755 331.735 66.4318C329.702 67.1267 327.677 67.8344 325.661 68.555C325.591 68.5819 325.517 68.595 325.442 68.5936L325.455 68.5293ZM337.616 64.3214C337.48 64.3231 337.347 64.2817 337.236 64.2031C337.125 64.1245 337.042 64.0127 336.998 63.8839C336.97 63.8037 336.959 63.7187 336.964 63.6339C336.97 63.5492 336.993 63.4665 337.031 63.3908C337.07 63.3151 337.123 63.248 337.188 63.1934C337.253 63.1388 337.329 63.0979 337.41 63.0732C339.434 62.3869 341.472 61.7134 343.522 61.0528C343.693 60.9999 343.878 61.017 344.036 61.1003C344.194 61.1835 344.312 61.3261 344.365 61.4968C344.418 61.6674 344.401 61.8521 344.318 62.0102C344.234 62.1682 344.092 62.2868 343.921 62.3397L337.809 64.36C337.741 64.3718 337.671 64.3718 337.603 64.36L337.616 64.3214ZM349.841 60.3322C349.67 60.3578 349.496 60.3146 349.357 60.212C349.219 60.1094 349.126 59.956 349.101 59.7853C349.075 59.6147 349.118 59.4408 349.221 59.3021C349.323 59.1633 349.477 59.071 349.648 59.0454L355.786 57.128C355.867 57.1003 355.953 57.0894 356.038 57.0959C356.123 57.1025 356.207 57.1263 356.282 57.1661C356.358 57.2058 356.425 57.2606 356.479 57.327C356.533 57.3935 356.573 57.4703 356.596 57.5527C356.645 57.7148 356.627 57.8894 356.548 58.0387C356.468 58.188 356.333 58.3 356.172 58.3505L349.969 60.3708C349.924 60.3861 349.876 60.3948 349.828 60.3966L349.841 60.3322ZM362.13 56.5489C361.994 56.5491 361.862 56.5053 361.753 56.4241C361.644 56.343 361.564 56.2288 361.525 56.0986C361.476 55.9347 361.493 55.7584 361.573 55.607C361.652 55.4556 361.787 55.3411 361.95 55.2878L368.126 53.4734C368.297 53.4256 368.48 53.4476 368.634 53.5345C368.789 53.6214 368.902 53.766 368.95 53.9367C368.998 54.1073 368.976 54.29 368.889 54.4444C368.802 54.5989 368.657 54.7125 368.487 54.7602L362.31 56.639C362.246 56.6515 362.181 56.6515 362.117 56.639L362.13 56.5489ZM374.483 52.9716C374.344 52.9667 374.209 52.9182 374.098 52.8328C373.987 52.7474 373.906 52.6294 373.866 52.4954C373.822 52.33 373.844 52.154 373.929 52.0049C374.013 51.8559 374.152 51.7456 374.316 51.6976L380.519 49.9861C380.689 49.9418 380.871 49.967 381.023 50.0563C381.175 50.1456 381.285 50.2916 381.329 50.4622C381.374 50.6329 381.348 50.8142 381.259 50.9662C381.17 51.1182 381.024 51.2286 380.853 51.273L374.664 52.9973L374.483 52.9716ZM386.901 49.5743C386.759 49.5742 386.62 49.5277 386.506 49.4418C386.393 49.3559 386.31 49.2353 386.271 49.0982C386.249 49.0162 386.245 48.9309 386.256 48.847C386.268 48.7632 386.296 48.6825 386.339 48.6096C386.382 48.5366 386.439 48.4729 386.507 48.4221C386.575 48.3712 386.652 48.3342 386.734 48.3132C388.793 47.7599 390.878 47.2194 392.962 46.679C393.133 46.6363 393.313 46.6632 393.464 46.7537C393.615 46.8442 393.724 46.9909 393.767 47.1615C393.809 47.3322 393.782 47.5128 393.692 47.6636C393.601 47.8144 393.455 47.9231 393.284 47.9658L387.069 49.5872L386.901 49.5743ZM399.358 46.3701C399.187 46.3906 399.015 46.3425 398.88 46.2363C398.745 46.1301 398.658 45.9746 398.637 45.8039C398.617 45.6333 398.665 45.4615 398.771 45.3264C398.877 45.1912 399.033 45.1038 399.203 45.0833L405.457 43.552C405.542 43.5326 405.629 43.5299 405.715 43.5443C405.8 43.5587 405.882 43.5898 405.956 43.6358C406.029 43.6818 406.093 43.7418 406.143 43.8124C406.193 43.8831 406.229 43.9629 406.249 44.0474C406.268 44.1319 406.271 44.2194 406.256 44.3049C406.242 44.3904 406.211 44.4722 406.165 44.5457C406.119 44.6192 406.059 44.6829 405.988 44.7332C405.918 44.7835 405.838 44.8194 405.753 44.8388L399.512 46.3701H399.358ZM411.866 43.3461C411.719 43.3467 411.577 43.2974 411.462 43.2061C411.348 43.1148 411.267 42.9872 411.235 42.8442C411.196 42.6787 411.225 42.5047 411.314 42.36C411.403 42.2153 411.546 42.1118 411.711 42.0721L417.991 40.6309C418.162 40.5933 418.34 40.6251 418.487 40.7192C418.635 40.8134 418.738 40.9621 418.776 41.1327C418.814 41.3034 418.782 41.482 418.688 41.6292C418.594 41.7764 418.445 41.8802 418.274 41.9177L412.007 43.3589L411.866 43.3461ZM424.399 40.4893C424.254 40.4919 424.112 40.443 423.999 40.3511C423.886 40.2593 423.809 40.1305 423.782 39.9875C423.763 39.9054 423.761 39.8205 423.775 39.7376C423.79 39.6547 423.821 39.5755 423.866 39.5047C423.912 39.434 423.971 39.3731 424.04 39.3256C424.11 39.2781 424.188 39.245 424.271 39.2282L430.563 37.8642C430.729 37.8297 430.901 37.8616 431.043 37.9531C431.185 38.0446 431.286 38.1883 431.323 38.3532C431.357 38.5202 431.326 38.6942 431.235 38.8384C431.143 38.9825 430.999 39.0854 430.834 39.1253L424.541 40.4765L424.399 40.4893ZM436.985 37.8256C436.814 37.8427 436.644 37.7912 436.511 37.6826C436.378 37.574 436.294 37.4172 436.277 37.2465C436.26 37.0759 436.311 36.9054 436.42 36.7727C436.528 36.64 436.685 36.5558 436.856 36.5388L443.174 35.2519C443.341 35.2219 443.514 35.2591 443.654 35.3555C443.793 35.452 443.889 35.5997 443.921 35.7667C443.939 35.8488 443.941 35.9339 443.926 36.0167C443.91 36.0995 443.878 36.1783 443.831 36.2483C443.784 36.3182 443.723 36.3777 443.652 36.4232C443.581 36.4688 443.502 36.4993 443.419 36.513L437.113 37.7999L436.985 37.8256ZM449.608 35.2519C449.458 35.254 449.311 35.2018 449.195 35.105C449.08 35.0082 449.002 34.8732 448.978 34.7243C448.947 34.5575 448.982 34.3852 449.076 34.2436C449.169 34.1021 449.314 34.0022 449.48 33.9651L455.811 32.7812C455.894 32.7646 455.979 32.7647 456.062 32.7818C456.145 32.7988 456.224 32.8323 456.293 32.8803C456.363 32.9283 456.422 32.9899 456.468 33.0613C456.513 33.1327 456.543 33.2125 456.557 33.296C456.587 33.4631 456.55 33.6354 456.454 33.7752C456.357 33.915 456.209 34.011 456.043 34.0423C453.932 34.4284 451.822 34.8273 449.724 35.2391L449.608 35.2519ZM462.258 32.8971C462.173 32.9047 462.088 32.8955 462.007 32.8702C461.926 32.8449 461.851 32.8039 461.786 32.7495C461.721 32.6952 461.667 32.6285 461.628 32.5534C461.588 32.4782 461.564 32.396 461.557 32.3115C461.549 32.227 461.558 32.1419 461.583 32.0609C461.609 31.9799 461.65 31.9047 461.704 31.8396C461.758 31.7745 461.825 31.7207 461.9 31.6814C461.975 31.642 462.058 31.6178 462.142 31.6102L468.486 30.4907C468.657 30.4617 468.832 30.5016 468.973 30.6018C469.114 30.7019 469.21 30.8541 469.239 31.0247C469.268 31.1954 469.228 31.3705 469.128 31.5117C469.028 31.6529 468.876 31.7485 468.705 31.7775L462.374 32.8842L462.258 32.8971ZM474.933 30.7094C474.849 30.7162 474.764 30.7062 474.683 30.6802C474.602 30.6541 474.528 30.6124 474.463 30.5574C474.399 30.5024 474.346 30.4353 474.307 30.3598C474.268 30.2843 474.245 30.202 474.238 30.1175C474.232 30.033 474.241 29.948 474.268 29.8674C474.294 29.7867 474.335 29.712 474.39 29.6475C474.445 29.5829 474.512 29.5299 474.588 29.4913C474.663 29.4527 474.746 29.4294 474.83 29.4226L481.187 28.3932C481.272 28.3805 481.358 28.3846 481.441 28.4052C481.524 28.4258 481.602 28.4626 481.67 28.5134C481.739 28.5641 481.797 28.628 481.841 28.7012C481.885 28.7744 481.914 28.8556 481.927 28.9401C481.94 29.0246 481.936 29.1107 481.915 29.1936C481.894 29.2765 481.858 29.3546 481.807 29.4233C481.756 29.492 481.692 29.55 481.619 29.5941C481.546 29.6381 481.465 29.6673 481.38 29.68L475.036 30.7223L474.933 30.7094ZM487.634 28.6634C487.55 28.6693 487.465 28.6585 487.384 28.6316C487.304 28.6048 487.23 28.5623 487.166 28.5068C487.037 28.3946 486.958 28.2357 486.946 28.065C486.934 27.8944 486.99 27.726 487.102 27.5969C487.215 27.4677 487.373 27.3885 487.544 27.3765L493.901 26.4114C493.986 26.3988 494.072 26.4029 494.155 26.4235C494.238 26.4441 494.316 26.4809 494.384 26.5316C494.453 26.5824 494.511 26.6463 494.555 26.7195C494.599 26.7927 494.628 26.8738 494.641 26.9583C494.654 27.0428 494.65 27.129 494.629 27.2119C494.608 27.2948 494.572 27.3729 494.521 27.4416C494.47 27.5103 494.406 27.5683 494.333 27.6124C494.26 27.6564 494.179 27.6856 494.094 27.6983C491.958 28.0071 489.848 28.3288 487.737 28.6634H487.634ZM500.361 26.7717C500.276 26.7777 500.192 26.7669 500.111 26.74C500.031 26.7131 499.957 26.6707 499.893 26.6151C499.764 26.5029 499.684 26.344 499.672 26.1734C499.66 26.0027 499.717 25.8343 499.829 25.7052C499.941 25.5761 500.1 25.4969 500.271 25.4849C502.381 25.1889 504.517 24.8801 506.705 24.597C506.876 24.5748 507.048 24.6213 507.184 24.7263C507.321 24.8313 507.41 24.9861 507.432 25.1568C507.454 25.3274 507.408 25.4999 507.303 25.6362C507.198 25.7726 507.043 25.8617 506.872 25.8838C504.736 26.1669 502.613 26.4758 500.502 26.7717H500.361ZM513.113 25.0345C513.029 25.0404 512.944 25.0297 512.864 25.0028C512.783 24.9759 512.709 24.9335 512.645 24.8779C512.516 24.7657 512.437 24.6068 512.425 24.4362C512.413 24.2655 512.469 24.0971 512.582 23.968C512.694 23.8389 512.853 23.7596 513.023 23.7477L519.457 22.9241C519.628 22.902 519.801 22.9485 519.937 23.0534C520.073 23.1584 520.162 23.3133 520.184 23.4839C520.207 23.6545 520.16 23.827 520.055 23.9634C519.95 24.0997 519.795 24.1888 519.625 24.211C517.489 24.4683 515.365 24.7514 513.191 25.0217L513.113 25.0345ZM525.866 23.426C525.695 23.4345 525.528 23.3749 525.401 23.2603C525.275 23.1457 525.199 22.9854 525.19 22.8147C525.182 22.6441 525.241 22.4771 525.356 22.3504C525.471 22.2237 525.631 22.1477 525.802 22.1392L532.236 21.3928C532.32 21.3827 532.406 21.3893 532.488 21.4122C532.57 21.4352 532.646 21.4741 532.713 21.5267C532.78 21.5792 532.836 21.6445 532.878 21.7187C532.919 21.7928 532.946 21.8745 532.956 21.959C532.966 22.0435 532.96 22.1292 532.937 22.2111C532.914 22.2931 532.875 22.3697 532.822 22.4366C532.77 22.5035 532.705 22.5594 532.63 22.6011C532.556 22.6428 532.475 22.6695 532.39 22.6796L525.956 23.4389L525.866 23.426ZM538.657 21.959C538.486 21.9693 538.319 21.9113 538.191 21.7979C538.063 21.6844 537.985 21.5248 537.975 21.3542C537.965 21.1836 538.023 21.0158 538.136 20.8879C538.249 20.76 538.409 20.6824 538.58 20.6722L545.014 19.9902C545.183 19.9721 545.352 20.0214 545.484 20.1275C545.617 20.2336 545.702 20.3877 545.722 20.5564C545.73 20.6409 545.722 20.7264 545.698 20.8079C545.674 20.8894 545.633 20.9652 545.58 21.031C545.526 21.0968 545.459 21.1513 545.384 21.1913C545.309 21.2313 545.227 21.2561 545.143 21.2641L538.708 21.9461L538.657 21.959ZM551.448 20.6722C551.277 20.6807 551.11 20.6211 550.984 20.5065C550.857 20.3919 550.781 20.2316 550.772 20.0609C550.764 19.8903 550.823 19.7233 550.938 19.5966C551.053 19.4699 551.213 19.3939 551.384 19.3854C553.52 19.1623 555.664 18.9564 557.818 18.7677C557.988 18.7506 558.159 18.802 558.292 18.9106C558.424 19.0192 558.508 19.1761 558.526 19.3468C558.543 19.5174 558.491 19.6878 558.383 19.8206C558.274 19.9533 558.117 20.0374 557.946 20.0545L551.512 20.6722H551.448ZM564.316 19.4626C564.146 19.4626 563.982 19.3948 563.861 19.2741C563.741 19.1534 563.673 18.9898 563.673 18.8192C563.673 18.6485 563.741 18.4848 563.861 18.3642C563.982 18.2435 564.146 18.1757 564.316 18.1757L570.75 17.6095C570.835 17.6028 570.92 17.6127 571 17.6388C571.081 17.6649 571.156 17.7066 571.22 17.7616C571.285 17.8166 571.338 17.8837 571.377 17.9592C571.415 18.0346 571.438 18.117 571.445 18.2015C571.452 18.286 571.442 18.371 571.416 18.4516C571.39 18.5323 571.348 18.607 571.293 18.6715C571.238 18.736 571.171 18.7891 571.096 18.8277C571.02 18.8663 570.938 18.8896 570.853 18.8964L564.419 19.4497L564.316 19.4626ZM577.185 18.3688C577.022 18.3693 576.866 18.3086 576.747 18.1989C576.628 18.0891 576.554 17.9384 576.541 17.7768C576.534 17.6076 576.59 17.4417 576.7 17.3128C576.81 17.1838 576.965 17.1013 577.133 17.0819L583.567 16.5929C583.651 16.5859 583.735 16.5958 583.815 16.6219C583.896 16.648 583.969 16.6899 584.033 16.7451C584.097 16.8003 584.148 16.8676 584.186 16.9431C584.223 17.0187 584.244 17.1009 584.249 17.1849C584.256 17.2694 584.246 17.3545 584.221 17.4353C584.195 17.5161 584.153 17.5909 584.098 17.6555C584.043 17.7201 583.976 17.7731 583.9 17.8116C583.824 17.8501 583.742 17.8733 583.657 17.8798L577.223 18.3688H577.185ZM590.053 17.4036C589.891 17.4042 589.734 17.3435 589.615 17.2337C589.496 17.124 589.422 16.9733 589.409 16.8117C589.402 16.7268 589.413 16.6414 589.44 16.5605C589.466 16.4797 589.509 16.4052 589.566 16.3414C589.623 16.2777 589.691 16.2261 589.768 16.1897C589.845 16.1533 589.929 16.1329 590.014 16.1297L596.448 15.6921C596.533 15.6871 596.617 15.6987 596.698 15.7264C596.777 15.754 596.851 15.7972 596.915 15.8533C596.978 15.9095 597.03 15.9776 597.067 16.0537C597.104 16.1298 597.125 16.2125 597.13 16.297C597.135 16.3815 597.124 16.4661 597.096 16.5461C597.068 16.6261 597.025 16.6999 596.969 16.7632C596.913 16.8266 596.845 16.8782 596.769 16.9152C596.693 16.9523 596.61 16.9739 596.526 16.979L590.091 17.4165L590.053 17.4036ZM602.921 16.5672C602.758 16.5645 602.601 16.501 602.482 16.3892C602.363 16.2773 602.29 16.1252 602.278 15.9624C602.272 15.8779 602.284 15.7931 602.312 15.7131C602.339 15.633 602.382 15.5592 602.438 15.4958C602.495 15.4324 602.563 15.3808 602.639 15.3438C602.715 15.3068 602.798 15.2853 602.883 15.2804L609.317 14.8943C609.402 14.8873 609.487 14.8976 609.568 14.9245C609.649 14.9514 609.723 14.9944 609.787 15.051C609.851 15.1075 609.902 15.1763 609.939 15.2534C609.975 15.3304 609.995 15.414 609.999 15.4991C610.004 15.5837 609.992 15.6684 609.965 15.7485C609.937 15.8285 609.894 15.9024 609.838 15.9657C609.782 16.0291 609.714 16.0807 609.637 16.1177C609.561 16.1547 609.478 16.1762 609.394 16.1811C607.245 16.3098 605.109 16.4257 602.96 16.5672H602.921Z" fill="#162C99"/>
<path d="M319.858 365.349H318.803C318.632 365.349 318.468 365.281 318.348 365.161C318.227 365.04 318.159 364.876 318.159 364.706C318.159 364.535 318.227 364.371 318.348 364.251C318.468 364.13 318.632 364.062 318.803 364.062H319.858H325.224C325.31 364.053 325.398 364.062 325.48 364.09C325.562 364.118 325.637 364.163 325.7 364.224C325.762 364.284 325.811 364.357 325.842 364.438C325.873 364.519 325.886 364.606 325.88 364.693C325.882 364.777 325.867 364.861 325.836 364.94C325.805 365.019 325.759 365.091 325.701 365.152C325.642 365.213 325.572 365.261 325.495 365.295C325.417 365.329 325.334 365.347 325.25 365.349H319.858ZM312.368 365.259C310.224 365.208 308.079 365.13 305.934 365.027C305.762 365.017 305.601 364.94 305.486 364.813C305.37 364.685 305.31 364.517 305.317 364.345C305.32 364.261 305.34 364.179 305.376 364.103C305.411 364.027 305.462 363.958 305.524 363.902C305.586 363.846 305.659 363.802 305.739 363.775C305.818 363.747 305.902 363.735 305.986 363.741C308.135 363.843 310.271 363.921 312.42 363.972C312.591 363.972 312.754 364.04 312.875 364.161C312.996 364.281 313.063 364.445 313.063 364.616C313.063 364.786 312.996 364.95 312.875 365.071C312.754 365.191 312.591 365.259 312.42 365.259H312.368ZM331.671 365.117C331.5 365.117 331.337 365.05 331.216 364.929C331.095 364.808 331.027 364.645 331.027 364.474C331.027 364.303 331.095 364.14 331.216 364.019C331.337 363.898 331.5 363.831 331.671 363.831C333.807 363.741 335.943 363.638 338.105 363.496C338.19 363.489 338.275 363.499 338.356 363.526C338.437 363.553 338.512 363.596 338.575 363.653C338.639 363.709 338.691 363.778 338.727 363.855C338.763 363.932 338.784 364.016 338.787 364.101C338.794 364.185 338.784 364.269 338.758 364.349C338.732 364.429 338.69 364.503 338.635 364.567C338.58 364.63 338.512 364.682 338.437 364.719C338.361 364.756 338.279 364.778 338.195 364.783C336.046 364.924 333.897 365.027 331.761 365.117H331.671ZM299.5 364.641C297.351 364.5 295.215 364.32 293.066 364.127C292.896 364.107 292.741 364.022 292.633 363.89C292.525 363.758 292.472 363.589 292.487 363.419C292.509 363.251 292.595 363.097 292.727 362.99C292.858 362.882 293.025 362.829 293.195 362.84C295.318 363.033 297.454 363.213 299.629 363.355C299.801 363.368 299.96 363.448 300.074 363.578C300.187 363.708 300.244 363.877 300.234 364.049C300.227 364.136 300.203 364.221 300.163 364.299C300.123 364.376 300.068 364.445 300 364.5C299.933 364.555 299.855 364.596 299.771 364.621C299.687 364.645 299.6 364.652 299.513 364.641H299.5ZM344.539 364.32C344.378 364.317 344.223 364.256 344.105 364.146C343.986 364.037 343.912 363.888 343.896 363.728C343.889 363.643 343.898 363.558 343.924 363.477C343.95 363.396 343.992 363.322 344.047 363.257C344.102 363.192 344.169 363.139 344.245 363.101C344.321 363.062 344.403 363.039 344.488 363.033C346.624 362.853 348.747 362.647 350.922 362.428C351.006 362.42 351.092 362.428 351.173 362.452C351.254 362.477 351.33 362.517 351.396 362.571C351.461 362.625 351.516 362.691 351.556 362.766C351.596 362.841 351.621 362.923 351.63 363.007C351.638 363.092 351.63 363.177 351.605 363.258C351.581 363.339 351.54 363.415 351.487 363.481C351.433 363.547 351.367 363.601 351.292 363.641C351.217 363.681 351.135 363.706 351.051 363.715C348.914 363.946 346.778 364.152 344.616 364.332L344.539 364.32ZM286.709 363.457C284.56 363.213 282.437 362.943 280.275 362.647C280.106 362.624 279.953 362.536 279.849 362.401C279.746 362.266 279.7 362.095 279.722 361.926C279.747 361.756 279.838 361.603 279.975 361.5C280.113 361.396 280.285 361.351 280.455 361.373C282.566 361.669 284.702 361.939 286.825 362.183C286.996 362.194 287.155 362.271 287.269 362.399C287.382 362.527 287.44 362.695 287.43 362.866C287.419 363.036 287.342 363.196 287.214 363.309C287.086 363.423 286.918 363.481 286.748 363.47L286.709 363.457ZM357.343 362.956C357.187 362.957 357.036 362.902 356.917 362.8C356.799 362.698 356.722 362.557 356.7 362.402C356.687 362.318 356.691 362.233 356.713 362.151C356.734 362.069 356.771 361.992 356.823 361.924C356.875 361.857 356.939 361.801 357.013 361.759C357.087 361.717 357.169 361.691 357.253 361.682C359.376 361.411 361.5 361.115 363.61 360.794C363.781 360.768 363.954 360.811 364.093 360.914C364.232 361.016 364.324 361.17 364.35 361.341C364.375 361.511 364.332 361.685 364.23 361.824C364.127 361.963 363.974 362.055 363.803 362.081C361.68 362.402 359.556 362.698 357.369 362.968L357.343 362.956ZM273.957 361.669H273.854C271.73 361.334 269.607 360.961 267.497 360.575C267.326 360.544 267.175 360.447 267.076 360.305C266.977 360.162 266.938 359.986 266.969 359.816C267 359.645 267.097 359.494 267.24 359.395C267.382 359.296 267.558 359.257 267.728 359.288C269.839 359.674 271.949 360.035 274.06 360.382C274.23 360.396 274.388 360.476 274.499 360.607C274.61 360.737 274.665 360.906 274.652 361.077C274.638 361.247 274.557 361.406 274.427 361.517C274.296 361.628 274.127 361.682 273.957 361.669ZM370.057 361.012C369.886 361.026 369.717 360.971 369.587 360.86C369.457 360.749 369.376 360.591 369.362 360.421C369.348 360.25 369.403 360.081 369.514 359.951C369.625 359.82 369.783 359.739 369.954 359.726C372.064 359.352 374.162 358.966 376.259 358.555C376.43 358.52 376.607 358.556 376.752 358.652C376.897 358.749 376.997 358.899 377.032 359.069C377.066 359.24 377.031 359.417 376.934 359.562C376.838 359.707 376.688 359.807 376.517 359.841C374.406 360.253 372.283 360.652 370.173 361.012H370.057ZM261.294 359.34H261.178C259.068 358.889 256.971 358.439 254.873 357.95C254.702 357.911 254.554 357.805 254.461 357.657C254.368 357.508 254.338 357.329 254.378 357.158C254.417 356.988 254.522 356.84 254.671 356.747C254.819 356.654 254.998 356.624 255.169 356.663C257.254 357.152 259.338 357.615 261.436 358.053C261.519 358.07 261.597 358.103 261.667 358.15C261.737 358.197 261.797 358.258 261.844 358.328C261.891 358.399 261.923 358.478 261.939 358.561C261.955 358.644 261.955 358.729 261.938 358.812C261.916 358.972 261.835 359.119 261.711 359.223C261.588 359.328 261.43 359.383 261.269 359.378L261.294 359.34ZM382.694 358.542C382.523 358.561 382.352 358.511 382.218 358.403C382.084 358.296 381.998 358.14 381.979 357.969C381.961 357.799 382.01 357.627 382.118 357.493C382.225 357.36 382.381 357.274 382.552 357.255C384.637 356.792 386.734 356.316 388.806 355.814C388.973 355.775 389.149 355.803 389.296 355.892C389.442 355.981 389.548 356.124 389.591 356.29C389.63 356.455 389.601 356.629 389.512 356.774C389.423 356.919 389.28 357.022 389.115 357.062C387.017 357.577 384.933 358.053 382.822 358.516L382.694 358.542ZM248.722 356.47H248.568C246.483 355.942 244.398 355.376 242.339 354.797C242.255 354.774 242.176 354.735 242.106 354.682C242.037 354.628 241.979 354.562 241.935 354.486C241.892 354.41 241.863 354.326 241.852 354.239C241.841 354.153 241.847 354.064 241.87 353.98C241.892 353.895 241.932 353.816 241.985 353.747C242.038 353.678 242.105 353.619 242.181 353.576C242.257 353.532 242.34 353.504 242.427 353.493C242.514 353.482 242.602 353.487 242.687 353.51C244.746 354.102 246.805 354.656 248.889 355.183C249.053 355.229 249.193 355.336 249.279 355.482C249.366 355.628 249.392 355.803 249.352 355.968C249.32 356.111 249.24 356.239 249.126 356.33C249.011 356.421 248.868 356.471 248.722 356.47ZM395.176 355.569C395.033 355.571 394.893 355.526 394.779 355.439C394.665 355.353 394.583 355.231 394.545 355.093C394.502 354.926 394.526 354.748 394.613 354.599C394.7 354.45 394.842 354.34 395.009 354.295C397.08 353.755 399.139 353.176 401.185 352.584C401.356 352.536 401.539 352.558 401.693 352.645C401.848 352.732 401.961 352.876 402.009 353.047C402.057 353.218 402.035 353.4 401.948 353.555C401.861 353.709 401.716 353.823 401.546 353.871C399.487 354.475 397.415 355.042 395.33 355.595L395.176 355.569ZM236.33 352.996H236.15C234.091 352.352 232.04 351.692 229.999 351.014C229.836 350.959 229.703 350.842 229.627 350.689C229.551 350.536 229.539 350.359 229.593 350.197C229.648 350.035 229.765 349.901 229.918 349.825C230.071 349.749 230.248 349.737 230.41 349.791C232.444 350.478 234.481 351.134 236.523 351.76C236.685 351.813 236.82 351.928 236.9 352.079C236.979 352.231 236.996 352.407 236.947 352.571C236.896 352.69 236.809 352.791 236.699 352.86C236.588 352.929 236.46 352.963 236.33 352.957V352.996ZM407.478 352.018C407.341 352.016 407.207 351.972 407.097 351.892C406.986 351.811 406.903 351.697 406.86 351.567C406.812 351.403 406.829 351.227 406.908 351.076C406.987 350.924 407.122 350.81 407.285 350.756C409.331 350.113 411.364 349.47 413.384 348.762C413.547 348.708 413.723 348.72 413.877 348.794C414.031 348.869 414.15 349 414.208 349.161C414.236 349.242 414.248 349.328 414.242 349.413C414.237 349.499 414.214 349.583 414.176 349.659C414.137 349.736 414.084 349.804 414.019 349.86C413.954 349.916 413.878 349.958 413.796 349.984C411.763 350.662 409.721 351.327 407.671 351.979L407.478 352.018ZM224.079 348.903C224.007 348.917 223.933 348.917 223.86 348.903C221.827 348.17 219.82 347.411 217.812 346.626C217.654 346.563 217.527 346.439 217.459 346.282C217.391 346.125 217.389 345.948 217.452 345.789C217.515 345.631 217.639 345.503 217.796 345.436C217.952 345.368 218.13 345.366 218.288 345.429C220.283 346.214 222.278 346.96 224.298 347.694C224.458 347.752 224.589 347.871 224.661 348.026C224.734 348.18 224.742 348.357 224.684 348.517C224.629 348.618 224.549 348.702 224.453 348.763C224.356 348.824 224.245 348.859 224.131 348.865L224.079 348.903ZM419.677 347.887C419.593 347.901 419.506 347.899 419.423 347.88C419.339 347.861 419.26 347.825 419.19 347.776C419.12 347.726 419.061 347.663 419.015 347.591C418.969 347.518 418.939 347.437 418.924 347.353C418.91 347.268 418.912 347.182 418.931 347.098C418.95 347.015 418.986 346.936 419.035 346.866C419.085 346.796 419.148 346.736 419.22 346.691C419.293 346.645 419.374 346.614 419.458 346.6C421.466 345.871 423.469 345.112 425.468 344.322C425.628 344.261 425.806 344.266 425.963 344.336C426.12 344.406 426.243 344.535 426.304 344.696C426.366 344.856 426.361 345.034 426.291 345.191C426.221 345.348 426.091 345.471 425.931 345.532C423.924 346.304 421.912 347.063 419.896 347.81C419.838 347.831 419.777 347.844 419.716 347.848L419.677 347.887ZM212.099 344.219C212.018 344.238 211.935 344.238 211.854 344.219C209.86 343.396 207.891 342.534 205.935 341.646C205.857 341.611 205.787 341.561 205.728 341.5C205.67 341.438 205.624 341.365 205.594 341.286C205.563 341.206 205.549 341.122 205.551 341.037C205.553 340.952 205.572 340.868 205.607 340.79C205.641 340.712 205.691 340.642 205.753 340.584C205.815 340.525 205.887 340.479 205.967 340.449C206.046 340.418 206.131 340.404 206.216 340.406C206.301 340.408 206.385 340.427 206.463 340.462C208.406 341.35 210.323 342.199 212.343 343.035C212.422 343.068 212.494 343.116 212.555 343.176C212.615 343.236 212.663 343.308 212.695 343.387C212.727 343.466 212.744 343.551 212.743 343.636C212.742 343.722 212.724 343.806 212.691 343.885C212.632 343.978 212.551 344.055 212.454 344.107C212.356 344.158 212.247 344.184 212.137 344.181L212.099 344.219ZM431.657 343.203C431.531 343.2 431.408 343.162 431.302 343.091C431.197 343.02 431.115 342.92 431.065 342.804C431.001 342.647 431.002 342.471 431.067 342.314C431.132 342.158 431.256 342.033 431.413 341.967C433.395 341.11 435.363 340.252 437.319 339.394C437.477 339.328 437.653 339.327 437.812 339.389C437.97 339.452 438.098 339.573 438.169 339.728C438.203 339.806 438.221 339.89 438.223 339.975C438.224 340.059 438.209 340.144 438.178 340.223C438.147 340.302 438.101 340.374 438.042 340.434C437.983 340.495 437.912 340.544 437.834 340.578C435.861 341.436 433.888 342.293 431.915 343.151C431.843 343.164 431.769 343.169 431.696 343.164L431.657 343.203ZM200.363 338.943C200.27 338.963 200.173 338.963 200.08 338.943C198.137 338.004 196.219 337.052 194.302 336.074C194.227 336.035 194.16 335.982 194.105 335.917C194.051 335.852 194.009 335.777 193.984 335.697C193.958 335.616 193.949 335.531 193.956 335.447C193.963 335.362 193.986 335.28 194.025 335.205C194.064 335.13 194.117 335.063 194.182 335.009C194.247 334.954 194.322 334.913 194.402 334.887C194.483 334.861 194.568 334.852 194.652 334.859C194.737 334.866 194.819 334.89 194.894 334.928C196.798 335.906 198.754 336.846 200.633 337.772C200.804 337.808 200.953 337.91 201.049 338.056C201.144 338.202 201.177 338.38 201.141 338.551C201.106 338.722 201.003 338.871 200.857 338.966C200.711 339.062 200.534 339.095 200.363 339.059V338.943ZM443.458 338.017C443.313 338.015 443.173 337.964 443.061 337.872C442.949 337.781 442.871 337.654 442.839 337.512C442.808 337.371 442.826 337.223 442.889 337.093C442.952 336.963 443.057 336.857 443.187 336.794C445.126 335.894 447.061 334.976 448.991 334.041C449.145 333.965 449.322 333.954 449.483 334.01C449.645 334.065 449.778 334.183 449.853 334.337C449.928 334.49 449.939 334.667 449.884 334.829C449.828 334.991 449.711 335.124 449.557 335.199C447.618 336.142 445.675 337.065 443.728 337.965C443.652 337.983 443.574 337.988 443.496 337.978L443.458 338.017ZM188.949 333.05C188.841 333.05 188.735 333.024 188.64 332.972C186.748 331.943 184.857 330.875 183.016 329.807C182.888 329.713 182.798 329.575 182.765 329.419C182.732 329.263 182.759 329.101 182.839 328.963C182.919 328.825 183.047 328.722 183.199 328.674C183.35 328.625 183.515 328.635 183.66 328.7C185.5 329.755 187.379 330.811 189.258 331.84C189.406 331.924 189.515 332.062 189.563 332.226C189.611 332.389 189.594 332.564 189.515 332.715C189.457 332.815 189.375 332.898 189.276 332.957C189.177 333.015 189.064 333.047 188.949 333.05ZM455.078 332.355C454.931 332.358 454.787 332.312 454.67 332.222C454.554 332.133 454.471 332.006 454.436 331.863C454.402 331.72 454.417 331.57 454.48 331.437C454.543 331.304 454.649 331.196 454.782 331.132C456.686 330.154 458.582 329.163 460.469 328.16C460.62 328.081 460.796 328.064 460.959 328.112C461.122 328.16 461.26 328.269 461.345 328.417C461.385 328.492 461.41 328.575 461.418 328.659C461.426 328.744 461.417 328.83 461.392 328.911C461.367 328.993 461.326 329.068 461.272 329.134C461.217 329.199 461.15 329.253 461.074 329.292C459.187 330.313 457.282 331.308 455.361 332.278C455.274 332.327 455.177 332.353 455.078 332.355ZM177.818 326.603C177.699 326.6 177.583 326.564 177.483 326.5C175.643 325.367 173.816 324.209 172.04 323.051C171.897 322.959 171.796 322.813 171.76 322.647C171.724 322.481 171.755 322.307 171.847 322.163C171.942 322.019 172.089 321.918 172.258 321.882C172.426 321.846 172.602 321.878 172.748 321.97C174.511 323.128 176.325 324.286 178.152 325.406C178.225 325.45 178.289 325.507 178.339 325.576C178.39 325.644 178.427 325.722 178.447 325.804C178.467 325.887 178.471 325.973 178.458 326.057C178.445 326.141 178.415 326.221 178.371 326.294C178.312 326.387 178.23 326.464 178.133 326.518C178.037 326.572 177.928 326.601 177.818 326.603ZM466.415 326.268C466.3 326.265 466.188 326.232 466.089 326.174C465.99 326.115 465.907 326.033 465.848 325.934C465.768 325.784 465.749 325.61 465.795 325.447C465.84 325.284 465.947 325.145 466.093 325.058C467.955 324.003 469.812 322.935 471.665 321.854C471.736 321.81 471.816 321.781 471.899 321.768C471.982 321.755 472.067 321.759 472.148 321.779C472.23 321.8 472.307 321.836 472.374 321.887C472.441 321.937 472.498 322.001 472.54 322.073C472.626 322.22 472.652 322.396 472.611 322.561C472.57 322.727 472.466 322.87 472.321 322.961C470.468 324.059 468.602 325.131 466.724 326.178C466.63 326.233 466.523 326.264 466.415 326.268ZM477.494 319.718C477.353 319.72 477.215 319.674 477.102 319.589C476.988 319.504 476.906 319.384 476.868 319.248C476.83 319.112 476.838 318.967 476.891 318.835C476.943 318.704 477.038 318.594 477.16 318.521C478.974 317.402 480.788 316.257 482.577 315.086C482.648 315.039 482.728 315.007 482.811 314.991C482.894 314.976 482.98 314.976 483.063 314.994C483.146 315.011 483.225 315.045 483.295 315.092C483.365 315.14 483.425 315.201 483.472 315.272C483.518 315.343 483.55 315.423 483.566 315.506C483.582 315.589 483.581 315.675 483.563 315.758C483.546 315.841 483.513 315.92 483.465 315.99C483.417 316.06 483.356 316.12 483.285 316.167C481.483 317.338 479.656 318.483 477.842 319.615C477.737 319.679 477.617 319.714 477.494 319.718ZM167.06 319.564C166.928 319.568 166.798 319.532 166.687 319.461C164.924 318.238 163.161 316.977 161.436 315.716C161.298 315.615 161.206 315.464 161.179 315.295C161.153 315.126 161.194 314.954 161.295 314.815C161.396 314.677 161.547 314.585 161.716 314.558C161.885 314.531 162.057 314.573 162.196 314.674C163.907 315.961 165.67 317.247 167.42 318.393C167.532 318.471 167.616 318.582 167.66 318.711C167.705 318.84 167.707 318.979 167.667 319.11C167.627 319.24 167.546 319.354 167.437 319.436C167.328 319.517 167.196 319.562 167.06 319.564ZM488.291 312.718C488.187 312.721 488.085 312.697 487.992 312.65C487.9 312.603 487.821 312.533 487.763 312.448C487.714 312.378 487.68 312.299 487.662 312.215C487.644 312.132 487.643 312.046 487.658 311.962C487.674 311.878 487.706 311.799 487.753 311.727C487.799 311.656 487.86 311.595 487.93 311.547C489.693 310.35 491.456 309.115 493.194 307.879C493.263 307.83 493.341 307.795 493.424 307.776C493.507 307.757 493.592 307.754 493.676 307.769C493.76 307.783 493.84 307.814 493.912 307.859C493.983 307.905 494.046 307.964 494.094 308.034C494.143 308.102 494.178 308.179 494.197 308.261C494.216 308.343 494.218 308.427 494.204 308.51C494.189 308.593 494.159 308.672 494.113 308.743C494.068 308.813 494.009 308.874 493.94 308.922C492.224 310.166 490.461 311.397 488.651 312.615C488.544 312.686 488.419 312.722 488.291 312.718ZM156.688 311.984C156.546 311.986 156.409 311.936 156.302 311.843C154.603 310.556 152.905 309.179 151.27 307.828C151.204 307.775 151.149 307.71 151.109 307.636C151.068 307.562 151.043 307.481 151.035 307.397C151.026 307.313 151.035 307.228 151.06 307.147C151.085 307.066 151.126 306.992 151.18 306.927C151.233 306.861 151.298 306.806 151.372 306.765C151.446 306.725 151.528 306.7 151.612 306.691C151.696 306.683 151.781 306.692 151.861 306.717C151.942 306.742 152.017 306.783 152.081 306.837C153.715 308.124 155.401 309.527 157.087 310.839C157.155 310.89 157.212 310.953 157.255 311.027C157.298 311.1 157.326 311.181 157.336 311.265C157.347 311.349 157.341 311.434 157.318 311.516C157.295 311.598 157.256 311.674 157.203 311.74C157.138 311.813 157.059 311.871 156.97 311.911C156.882 311.951 156.785 311.972 156.688 311.971V311.984ZM498.766 305.254C498.666 305.253 498.568 305.23 498.478 305.185C498.389 305.14 498.311 305.076 498.251 304.997C498.148 304.86 498.104 304.689 498.129 304.52C498.153 304.351 498.243 304.198 498.379 304.096C500.095 302.809 501.811 301.522 503.527 300.236C503.662 300.144 503.828 300.107 503.99 300.133C504.151 300.159 504.297 300.245 504.397 300.375C504.497 300.505 504.544 300.667 504.528 300.83C504.512 300.993 504.435 301.144 504.312 301.252C502.626 302.539 500.915 303.826 499.164 305.113C499.047 305.193 498.908 305.238 498.766 305.241V305.254ZM146.767 303.826C146.611 303.825 146.461 303.771 146.342 303.671C144.733 302.269 143.112 300.828 141.542 299.386C141.48 299.329 141.429 299.26 141.393 299.183C141.357 299.106 141.337 299.022 141.334 298.937C141.33 298.853 141.343 298.768 141.372 298.688C141.401 298.608 141.446 298.535 141.503 298.473C141.561 298.41 141.63 298.36 141.707 298.324C141.784 298.288 141.867 298.268 141.952 298.264C142.037 298.261 142.122 298.274 142.202 298.303C142.281 298.332 142.355 298.377 142.417 298.434C143.974 299.875 145.583 301.304 147.191 302.706C147.256 302.761 147.308 302.827 147.346 302.902C147.385 302.977 147.407 303.059 147.413 303.143C147.419 303.227 147.408 303.311 147.381 303.391C147.354 303.471 147.311 303.544 147.256 303.607C147.194 303.676 147.119 303.73 147.034 303.765C146.95 303.801 146.858 303.817 146.767 303.813V303.826ZM508.88 297.276C508.786 297.277 508.693 297.257 508.609 297.216C508.524 297.176 508.45 297.117 508.391 297.044C508.336 296.981 508.294 296.906 508.268 296.826C508.242 296.746 508.232 296.662 508.239 296.578C508.247 296.494 508.27 296.412 508.31 296.337C508.349 296.263 508.403 296.197 508.468 296.143C510.124 294.779 511.758 293.398 513.371 292C513.435 291.944 513.51 291.902 513.59 291.875C513.671 291.848 513.756 291.837 513.841 291.843C513.926 291.849 514.009 291.871 514.085 291.909C514.161 291.947 514.229 292 514.285 292.064C514.34 292.128 514.383 292.203 514.41 292.284C514.437 292.364 514.448 292.45 514.442 292.534C514.436 292.619 514.413 292.702 514.375 292.778C514.337 292.854 514.285 292.922 514.22 292.978C512.599 294.376 510.956 295.762 509.292 297.134C509.173 297.224 509.029 297.274 508.88 297.276ZM137.321 295.114C137.238 295.115 137.155 295.1 137.078 295.069C137.001 295.038 136.93 294.992 136.871 294.934C135.327 293.441 133.795 291.91 132.328 290.391C132.269 290.33 132.223 290.259 132.191 290.18C132.16 290.101 132.144 290.017 132.146 289.932C132.148 289.761 132.218 289.597 132.341 289.478C132.464 289.358 132.629 289.292 132.801 289.295C132.972 289.297 133.135 289.368 133.255 289.491C134.722 290.996 136.24 292.527 137.772 294.02C137.832 294.079 137.879 294.149 137.912 294.226C137.944 294.304 137.961 294.387 137.961 294.471C137.961 294.554 137.944 294.638 137.912 294.715C137.879 294.792 137.832 294.862 137.772 294.921C137.654 295.046 137.492 295.12 137.321 295.127V295.114ZM518.608 288.86C518.479 288.858 518.353 288.818 518.248 288.744C518.142 288.67 518.061 288.566 518.015 288.445C517.969 288.324 517.961 288.192 517.991 288.067C518.021 287.941 518.088 287.827 518.184 287.74C519.762 286.299 521.324 284.841 522.868 283.365C522.928 283.305 522.999 283.257 523.077 283.224C523.156 283.192 523.24 283.175 523.325 283.175C523.41 283.175 523.494 283.192 523.572 283.224C523.65 283.257 523.722 283.305 523.781 283.365C523.841 283.424 523.889 283.494 523.921 283.571C523.954 283.649 523.971 283.732 523.971 283.816C523.971 283.9 523.954 283.983 523.921 284.06C523.889 284.137 523.841 284.207 523.781 284.266C522.237 285.759 520.667 287.226 519.072 288.667C519.012 288.731 518.941 288.782 518.861 288.817C518.782 288.853 518.695 288.872 518.608 288.873V288.86ZM128.365 285.9C128.277 285.902 128.19 285.885 128.11 285.849C128.03 285.814 127.959 285.761 127.902 285.694C126.448 284.112 124.993 282.503 123.604 280.882C123.536 280.821 123.482 280.746 123.445 280.662C123.409 280.579 123.39 280.489 123.391 280.398C123.392 280.306 123.412 280.216 123.451 280.134C123.489 280.051 123.544 279.977 123.613 279.918C123.682 279.858 123.763 279.814 123.85 279.787C123.938 279.761 124.029 279.754 124.12 279.766C124.21 279.778 124.297 279.809 124.374 279.857C124.452 279.906 124.518 279.97 124.569 280.045C125.959 281.641 127.4 283.249 128.841 284.832C128.903 284.89 128.952 284.96 128.985 285.037C129.019 285.115 129.036 285.198 129.036 285.283C129.036 285.367 129.019 285.451 128.985 285.528C128.952 285.605 128.903 285.675 128.841 285.733C128.78 285.796 128.705 285.845 128.623 285.876C128.541 285.907 128.453 285.92 128.365 285.913V285.9ZM527.912 279.968C527.827 279.97 527.742 279.955 527.662 279.925C527.583 279.894 527.51 279.847 527.449 279.788C527.33 279.665 527.264 279.502 527.264 279.331C527.264 279.161 527.33 278.997 527.449 278.874C528.95 277.356 530.439 275.82 531.914 274.267C532.033 274.156 532.19 274.094 532.353 274.094C532.516 274.094 532.673 274.155 532.792 274.266C532.912 274.378 532.984 274.53 532.996 274.692C533.007 274.855 532.956 275.016 532.854 275.142C531.378 276.712 529.881 278.261 528.363 279.788C528.242 279.907 528.081 279.976 527.912 279.981V279.968ZM119.988 276.185C119.892 276.186 119.797 276.166 119.711 276.126C119.624 276.086 119.547 276.027 119.486 275.953C118.199 274.306 116.783 272.607 115.471 270.896C115.379 270.76 115.342 270.595 115.368 270.433C115.394 270.271 115.481 270.126 115.61 270.026C115.74 269.925 115.903 269.879 116.066 269.894C116.229 269.91 116.38 269.988 116.487 270.111C117.774 271.81 119.138 273.495 120.477 275.13C120.531 275.195 120.573 275.271 120.598 275.353C120.623 275.434 120.632 275.52 120.623 275.605C120.615 275.69 120.59 275.773 120.549 275.848C120.508 275.923 120.453 275.99 120.387 276.043C120.264 276.146 120.109 276.201 119.949 276.198L119.988 276.185ZM536.766 270.613C536.687 270.614 536.609 270.6 536.536 270.572C536.464 270.543 536.397 270.5 536.341 270.446C536.281 270.386 536.233 270.315 536.2 270.236C536.167 270.158 536.151 270.074 536.151 269.989C536.151 269.904 536.167 269.82 536.2 269.741C536.233 269.663 536.281 269.592 536.341 269.532C537.756 267.949 539.172 266.315 540.549 264.693C540.664 264.585 540.814 264.522 540.972 264.518C541.13 264.513 541.284 264.567 541.405 264.669C541.526 264.771 541.605 264.913 541.628 265.07C541.65 265.226 541.614 265.385 541.527 265.517C540.15 267.151 538.722 268.798 537.293 270.394C537.225 270.477 537.138 270.541 537.039 270.581C536.94 270.622 536.833 270.637 536.727 270.626L536.766 270.613ZM112.112 266.006C112.011 266.007 111.911 265.982 111.821 265.935C111.731 265.888 111.655 265.82 111.598 265.736C110.311 263.998 109.024 262.223 107.879 260.473C107.83 260.403 107.796 260.324 107.778 260.24C107.76 260.157 107.758 260.071 107.774 259.987C107.789 259.903 107.822 259.824 107.868 259.752C107.915 259.681 107.975 259.62 108.046 259.572C108.115 259.523 108.193 259.489 108.275 259.471C108.357 259.454 108.442 259.452 108.525 259.468C108.608 259.484 108.687 259.516 108.757 259.562C108.827 259.609 108.887 259.669 108.934 259.739C110.131 261.489 111.379 263.252 112.64 264.976C112.738 265.116 112.777 265.287 112.751 265.455C112.725 265.624 112.634 265.775 112.498 265.877C112.382 265.972 112.236 266.022 112.087 266.019L112.112 266.006ZM545.053 260.781C544.93 260.783 544.809 260.749 544.705 260.684C544.6 260.619 544.517 260.525 544.464 260.414C544.411 260.303 544.391 260.18 544.407 260.058C544.422 259.936 544.472 259.821 544.551 259.726C545.838 258.053 547.202 256.355 548.476 254.656C548.578 254.52 548.73 254.429 548.899 254.405C549.068 254.381 549.24 254.425 549.376 254.527C549.51 254.632 549.598 254.784 549.622 254.952C549.646 255.12 549.604 255.291 549.505 255.428C548.218 257.127 546.931 258.851 545.555 260.576C545.489 260.649 545.407 260.707 545.316 260.745C545.224 260.783 545.126 260.8 545.027 260.794L545.053 260.781ZM104.816 255.402C104.709 255.401 104.603 255.373 104.509 255.322C104.415 255.27 104.334 255.196 104.275 255.107C103.117 253.292 101.959 251.452 100.865 249.638C100.821 249.565 100.792 249.484 100.778 249.4C100.765 249.316 100.769 249.23 100.79 249.148C100.81 249.065 100.846 248.988 100.897 248.919C100.948 248.851 101.011 248.793 101.084 248.75C101.156 248.706 101.235 248.676 101.318 248.663C101.401 248.651 101.486 248.654 101.568 248.675C101.649 248.695 101.726 248.732 101.793 248.782C101.86 248.832 101.917 248.896 101.959 248.968C103.053 250.783 104.198 252.61 105.356 254.412C105.404 254.482 105.436 254.561 105.452 254.645C105.468 254.728 105.467 254.814 105.449 254.897C105.431 254.98 105.396 255.058 105.347 255.127C105.298 255.196 105.236 255.255 105.163 255.3C105.06 255.366 104.939 255.402 104.816 255.402ZM552.748 250.5C552.615 250.499 552.485 250.459 552.375 250.384C552.237 250.283 552.144 250.133 552.115 249.965C552.086 249.797 552.124 249.624 552.22 249.483C553.507 247.733 554.678 245.957 555.849 244.194C555.892 244.115 555.95 244.046 556.02 243.991C556.091 243.936 556.172 243.896 556.259 243.874C556.346 243.853 556.436 243.849 556.525 243.864C556.613 243.879 556.697 243.913 556.772 243.962C556.846 244.011 556.91 244.076 556.958 244.151C557.006 244.227 557.038 244.311 557.052 244.4C557.066 244.488 557.061 244.579 557.038 244.665C557.014 244.752 556.973 244.832 556.917 244.902C555.746 246.678 554.524 248.466 553.276 250.229C553.216 250.314 553.137 250.383 553.045 250.43C552.953 250.478 552.851 250.501 552.748 250.5ZM98.1631 244.387C98.0489 244.388 97.9365 244.358 97.8372 244.302C97.7379 244.245 97.6551 244.164 97.5969 244.066L96.7218 242.508C95.9583 241.162 95.2119 239.798 94.4827 238.416C94.4423 238.343 94.4168 238.262 94.4078 238.179C94.3989 238.096 94.4066 238.012 94.4306 237.931C94.4545 237.851 94.4942 237.776 94.5474 237.712C94.6005 237.647 94.6661 237.593 94.7401 237.554C94.8144 237.513 94.896 237.488 94.9803 237.479C95.0646 237.469 95.1498 237.477 95.2311 237.501C95.3124 237.525 95.3882 237.565 95.4541 237.618C95.52 237.671 95.5747 237.737 95.6151 237.812C96.3486 239.188 97.095 240.54 97.8414 241.891L98.7164 243.435C98.7599 243.507 98.7885 243.588 98.8004 243.671C98.8123 243.755 98.8073 243.84 98.7857 243.922C98.7641 244.003 98.7264 244.08 98.6747 244.146C98.623 244.213 98.5584 244.269 98.4848 244.31C98.3848 244.36 98.2748 244.386 98.1631 244.387ZM559.864 239.768C559.742 239.77 559.622 239.739 559.517 239.677C559.374 239.585 559.273 239.441 559.234 239.275C559.196 239.109 559.223 238.935 559.311 238.79C560.443 236.949 561.55 235.096 562.605 233.282C562.646 233.208 562.702 233.144 562.769 233.092C562.836 233.04 562.912 233.003 562.994 232.981C563.075 232.959 563.16 232.954 563.244 232.966C563.327 232.978 563.408 233.007 563.48 233.05C563.628 233.134 563.737 233.273 563.783 233.437C563.829 233.601 563.808 233.777 563.725 233.925C562.656 235.753 561.55 237.619 560.405 239.459C560.35 239.553 560.271 239.632 560.176 239.686C560.081 239.74 559.973 239.769 559.864 239.768ZM92.1021 233.05C91.9818 233.049 91.8642 233.015 91.7621 232.951C91.66 232.888 91.5773 232.797 91.523 232.69C90.5322 230.695 89.6057 228.727 88.7692 226.835C88.7351 226.757 88.7168 226.674 88.7152 226.589C88.7135 226.504 88.7287 226.42 88.7598 226.341C88.7909 226.262 88.8373 226.19 88.8963 226.129C88.9554 226.068 89.0259 226.019 89.1038 225.986C89.2611 225.92 89.4377 225.919 89.5961 225.981C89.7546 226.043 89.8826 226.165 89.9531 226.32C90.7767 228.186 91.7032 230.181 92.6812 232.111C92.7185 232.187 92.7405 232.27 92.7458 232.354C92.7511 232.439 92.7397 232.523 92.7122 232.603C92.6847 232.684 92.6417 232.757 92.5856 232.821C92.5294 232.884 92.4614 232.936 92.3852 232.973C92.2988 233.022 92.2015 233.049 92.1021 233.05ZM566.298 228.624C566.191 228.623 566.085 228.596 565.989 228.546C565.841 228.462 565.732 228.324 565.684 228.161C565.636 227.998 565.653 227.822 565.732 227.671C566.736 225.78 567.727 223.811 568.666 221.971C568.746 221.822 568.88 221.709 569.04 221.656C569.201 221.603 569.376 221.615 569.528 221.688C569.604 221.725 569.672 221.776 569.729 221.84C569.785 221.903 569.828 221.977 569.855 222.057C569.883 222.137 569.894 222.222 569.889 222.307C569.883 222.391 569.861 222.474 569.824 222.55C568.872 224.454 567.881 226.41 566.864 228.276C566.811 228.38 566.729 228.467 566.63 228.529C566.53 228.59 566.415 228.623 566.298 228.624ZM86.8904 221.276C86.7611 221.278 86.6344 221.239 86.5282 221.165C86.4219 221.091 86.3416 220.986 86.2985 220.864C85.5007 218.805 84.7801 216.746 84.1495 214.752C84.0983 214.581 84.117 214.397 84.2015 214.24C84.2859 214.083 84.4293 213.966 84.5999 213.915C84.7705 213.864 84.9545 213.883 85.1114 213.967C85.2683 214.052 85.3851 214.195 85.4363 214.366C86.054 216.334 86.7232 218.368 87.5467 220.401C87.5777 220.48 87.5927 220.565 87.5906 220.65C87.5886 220.735 87.5697 220.819 87.535 220.897C87.5003 220.975 87.4505 221.045 87.3884 221.103C87.3264 221.162 87.2533 221.207 87.1736 221.237L86.8904 221.276ZM572.025 217.107C571.931 217.103 571.839 217.082 571.754 217.042C571.602 216.969 571.483 216.84 571.423 216.682C571.363 216.524 571.366 216.349 571.433 216.193C572.321 214.263 573.183 212.332 574.006 210.325C574.037 210.244 574.084 210.17 574.144 210.107C574.204 210.045 574.276 209.995 574.355 209.961C574.435 209.927 574.52 209.91 574.607 209.909C574.694 209.909 574.779 209.927 574.859 209.96C574.939 209.994 575.011 210.044 575.071 210.106C575.131 210.168 575.178 210.242 575.209 210.323C575.24 210.404 575.254 210.49 575.251 210.577C575.248 210.663 575.227 210.748 575.19 210.827C574.354 212.808 573.479 214.79 572.617 216.72C572.568 216.837 572.485 216.935 572.38 217.004C572.274 217.073 572.151 217.109 572.025 217.107ZM83.03 209.012C82.884 209.011 82.7428 208.96 82.6286 208.87C82.5144 208.779 82.4338 208.652 82.3994 208.51C82.1678 207.507 81.949 206.503 81.7431 205.499C81.7271 205.415 81.7278 205.328 81.7453 205.244C81.7628 205.16 81.7968 205.08 81.8452 205.009C81.8935 204.937 81.9555 204.877 82.0274 204.829C82.0993 204.782 82.1798 204.75 82.2643 204.734C82.3488 204.718 82.4356 204.718 82.5198 204.736C82.604 204.753 82.684 204.787 82.7551 204.836C82.8262 204.884 82.887 204.946 82.9342 205.018C82.9814 205.09 83.0139 205.17 83.03 205.255C83.223 206.246 83.4289 207.237 83.6605 208.215C83.6815 208.297 83.6857 208.382 83.673 208.466C83.6602 208.549 83.6307 208.63 83.5863 208.702C83.5419 208.774 83.4834 208.836 83.4143 208.885C83.3453 208.934 83.2671 208.969 83.1844 208.987L83.03 209.012ZM577.005 205.255C576.928 205.273 576.849 205.273 576.773 205.255C576.615 205.194 576.487 205.074 576.417 204.92C576.348 204.765 576.341 204.59 576.4 204.431C577.172 202.424 577.931 200.403 578.626 198.409C578.684 198.238 578.808 198.098 578.969 198.018C579.131 197.938 579.318 197.926 579.488 197.984C579.659 198.042 579.799 198.166 579.879 198.327C579.959 198.489 579.971 198.676 579.913 198.846C579.192 200.841 578.446 202.887 577.674 204.894C577.615 205.012 577.522 205.109 577.407 205.174C577.293 205.238 577.161 205.266 577.03 205.255H577.005ZM581.29 193.12H581.097C580.935 193.067 580.8 192.952 580.723 192.8C580.646 192.648 580.632 192.471 580.685 192.309C581.328 190.276 581.972 188.217 582.551 186.171C582.575 186.087 582.615 186.008 582.669 185.939C582.723 185.87 582.79 185.812 582.867 185.769C582.943 185.726 583.027 185.698 583.115 185.688C583.202 185.677 583.29 185.684 583.374 185.708C583.459 185.732 583.538 185.772 583.607 185.826C583.676 185.88 583.734 185.947 583.777 186.024C583.82 186.1 583.847 186.184 583.858 186.272C583.868 186.359 583.861 186.447 583.838 186.531C583.246 188.59 582.551 190.662 581.959 192.695C581.912 192.826 581.824 192.938 581.708 193.015C581.592 193.091 581.454 193.128 581.316 193.12H581.29ZM584.867 180.766H584.713C584.631 180.745 584.554 180.708 584.486 180.658C584.418 180.607 584.361 180.543 584.318 180.47C584.275 180.397 584.247 180.317 584.235 180.233C584.223 180.149 584.228 180.063 584.249 179.982C584.777 177.935 585.279 175.838 585.768 173.753C585.785 173.671 585.818 173.592 585.865 173.523C585.913 173.453 585.974 173.394 586.044 173.349C586.115 173.303 586.194 173.272 586.277 173.258C586.36 173.243 586.445 173.245 586.527 173.264C586.61 173.283 586.689 173.317 586.758 173.366C586.828 173.415 586.887 173.477 586.933 173.548C586.978 173.62 587.009 173.7 587.023 173.784C587.038 173.868 587.035 173.954 587.016 174.036C586.54 176.134 586.025 178.244 585.498 180.303C585.458 180.434 585.378 180.549 585.269 180.632C585.161 180.715 585.029 180.762 584.893 180.766H584.867ZM587.737 168.22H587.608C587.525 168.205 587.445 168.173 587.374 168.126C587.303 168.079 587.242 168.018 587.195 167.947C587.148 167.876 587.116 167.797 587.101 167.713C587.086 167.629 587.088 167.544 587.106 167.461C587.518 165.402 587.904 163.278 588.264 161.155C588.293 160.985 588.389 160.832 588.53 160.732C588.671 160.632 588.847 160.592 589.017 160.621C589.188 160.65 589.34 160.746 589.44 160.887C589.54 161.028 589.58 161.203 589.551 161.374C589.191 163.51 588.792 165.646 588.38 167.718C588.346 167.858 588.268 167.983 588.156 168.073C588.045 168.164 587.906 168.215 587.763 168.22H587.737ZM589.899 155.532H589.809C589.725 155.519 589.645 155.49 589.572 155.447C589.5 155.403 589.436 155.345 589.386 155.277C589.336 155.209 589.3 155.132 589.279 155.049C589.259 154.967 589.255 154.882 589.268 154.798C589.564 152.688 589.847 150.565 590.092 148.441C590.101 148.357 590.127 148.275 590.168 148.2C590.209 148.126 590.264 148.06 590.33 148.007C590.397 147.954 590.473 147.914 590.554 147.891C590.636 147.867 590.721 147.859 590.806 147.869C590.89 147.878 590.972 147.904 591.047 147.945C591.121 147.986 591.187 148.041 591.24 148.107C591.293 148.174 591.333 148.25 591.357 148.331C591.38 148.413 591.388 148.498 591.379 148.583C591.134 150.719 590.851 152.855 590.555 155.017C590.523 155.161 590.444 155.291 590.329 155.384C590.215 155.477 590.072 155.529 589.924 155.532H589.899ZM591.391 142.754H591.327C591.159 142.737 591.003 142.655 590.895 142.525C590.786 142.395 590.734 142.227 590.748 142.059C590.941 139.923 591.095 137.786 591.237 135.625C591.238 135.539 591.257 135.455 591.293 135.378C591.329 135.3 591.381 135.232 591.445 135.176C591.51 135.12 591.585 135.078 591.667 135.053C591.748 135.029 591.834 135.022 591.919 135.033C592.003 135.037 592.085 135.059 592.161 135.096C592.236 135.133 592.304 135.185 592.359 135.249C592.414 135.312 592.456 135.386 592.482 135.466C592.508 135.546 592.518 135.631 592.511 135.715C592.382 137.851 592.215 140 592.022 142.149C592.016 142.307 591.95 142.457 591.838 142.569C591.726 142.681 591.576 142.747 591.417 142.754H591.391ZM592.202 129.885C592.118 129.882 592.035 129.862 591.958 129.827C591.881 129.791 591.812 129.741 591.755 129.679C591.697 129.617 591.653 129.544 591.623 129.464C591.594 129.385 591.581 129.301 591.584 129.216C591.662 127.08 591.713 124.935 591.739 122.782C591.733 122.696 591.746 122.61 591.776 122.529C591.807 122.449 591.854 122.375 591.915 122.314C591.976 122.253 592.049 122.206 592.129 122.176C592.21 122.146 592.296 122.133 592.382 122.139C592.554 122.142 592.718 122.213 592.838 122.335C592.958 122.458 593.026 122.623 593.026 122.795C593.026 124.948 592.974 127.093 592.871 129.229C592.875 129.316 592.861 129.403 592.83 129.485C592.799 129.567 592.753 129.642 592.693 129.705C592.633 129.769 592.561 129.82 592.481 129.855C592.401 129.89 592.315 129.909 592.228 129.911L592.202 129.885ZM592.344 117.017C592.176 117.014 592.016 116.947 591.897 116.83C591.777 116.712 591.707 116.554 591.7 116.386C591.7 114.25 591.623 112.114 591.533 109.952C591.529 109.784 591.592 109.621 591.708 109.498C591.823 109.375 591.982 109.303 592.151 109.296C592.236 109.291 592.321 109.303 592.401 109.331C592.481 109.36 592.555 109.404 592.617 109.462C592.68 109.52 592.73 109.59 592.765 109.667C592.799 109.745 592.818 109.829 592.82 109.914C592.91 112.063 592.961 114.212 592.987 116.348C592.989 116.432 592.974 116.515 592.943 116.593C592.912 116.671 592.866 116.742 592.807 116.802C592.748 116.862 592.678 116.91 592.601 116.942C592.523 116.975 592.44 116.991 592.356 116.991L592.344 117.017ZM591.893 104.252C591.729 104.252 591.571 104.189 591.451 104.077C591.332 103.965 591.26 103.811 591.25 103.647C591.121 101.511 590.954 99.3874 590.774 97.2127C590.765 97.1288 590.773 97.044 590.797 96.9633C590.822 96.8826 590.862 96.8076 590.916 96.7429C590.97 96.6781 591.037 96.6248 591.112 96.5861C591.187 96.5474 591.269 96.5242 591.353 96.5178C591.437 96.509 591.521 96.517 591.602 96.5415C591.683 96.566 591.758 96.6065 591.823 96.6605C591.887 96.7145 591.941 96.7809 591.979 96.8559C592.018 96.9308 592.041 97.0128 592.048 97.0969C592.241 99.2459 592.395 101.382 592.537 103.531C592.542 103.616 592.53 103.7 592.503 103.78C592.475 103.86 592.432 103.934 592.376 103.998C592.32 104.061 592.252 104.113 592.175 104.15C592.099 104.187 592.016 104.208 591.932 104.213L591.893 104.252ZM590.761 91.3834C590.605 91.3814 590.455 91.3229 590.339 91.2187C590.223 91.1146 590.149 90.9719 590.13 90.8172C589.886 88.681 589.628 86.5578 589.332 84.383C589.32 84.2984 589.324 84.2121 589.345 84.1292C589.366 84.0463 589.404 83.9684 589.455 83.9001C589.507 83.8318 589.571 83.7744 589.645 83.7314C589.719 83.6884 589.801 83.6606 589.886 83.6495C590.054 83.631 590.223 83.6782 590.357 83.7813C590.492 83.8844 590.581 84.0355 590.606 84.2029C590.902 86.339 591.16 88.4623 591.404 90.637C591.422 90.8058 591.373 90.9749 591.267 91.1075C591.161 91.2401 591.007 91.3254 590.838 91.3448L590.761 91.3834ZM589.024 78.6309C588.869 78.6329 588.72 78.5794 588.601 78.4802C588.483 78.381 588.405 78.2427 588.38 78.0904C588.046 75.98 587.672 73.8696 587.286 71.7721C587.256 71.6015 587.294 71.4256 587.393 71.2832C587.492 71.1408 587.643 71.0436 587.814 71.0129C587.985 70.9822 588.16 71.0205 588.303 71.1194C588.445 71.2184 588.543 71.3698 588.573 71.5405C588.972 73.6509 589.345 75.7613 589.68 77.8845C589.695 77.9682 589.693 78.054 589.674 78.1369C589.656 78.2199 589.621 78.2983 589.572 78.3677C589.523 78.4371 589.46 78.4961 589.388 78.5412C589.316 78.5864 589.236 78.6169 589.152 78.6309H589.024ZM586.656 65.9814C586.511 65.9815 586.37 65.9316 586.258 65.8402C586.145 65.7488 586.068 65.6214 586.038 65.4795L585.91 64.9262C585.511 63.0217 585.073 61.0657 584.623 59.2255C584.584 59.0584 584.612 58.8827 584.701 58.7359C584.79 58.5892 584.933 58.4832 585.099 58.4406C585.264 58.4019 585.438 58.4302 585.583 58.5194C585.728 58.6086 585.831 58.7515 585.871 58.9167C586.334 60.8083 586.785 62.7772 587.158 64.6559L587.274 65.2093C587.292 65.2913 587.295 65.3763 587.28 65.4592C587.266 65.5421 587.235 65.6212 587.189 65.692C587.144 65.7628 587.084 65.8237 587.015 65.8712C586.945 65.9187 586.867 65.9518 586.785 65.9685L586.656 65.9814ZM583.606 53.4863C583.465 53.4855 583.328 53.4385 583.217 53.3525C583.105 53.2665 583.025 53.1462 582.988 53.0101C582.396 50.9255 581.779 48.8537 581.135 46.872C581.087 46.7082 581.104 46.5318 581.183 46.3804C581.262 46.229 581.398 46.1145 581.56 46.0613C581.724 46.0126 581.9 46.0297 582.052 46.109C582.203 46.1883 582.318 46.3235 582.371 46.4859C583.014 48.4805 583.658 50.5652 584.224 52.6627C584.247 52.7447 584.254 52.8305 584.244 52.9151C584.234 52.9998 584.207 53.0816 584.165 53.1558C584.124 53.23 584.067 53.2952 584 53.3475C583.933 53.3998 583.856 53.4383 583.773 53.4605L583.606 53.4863ZM579.655 41.1971C579.524 41.1952 579.396 41.1537 579.288 41.078C579.18 41.0022 579.097 40.8957 579.051 40.7724C578.317 38.7392 577.532 36.7318 576.734 34.8015C576.701 34.723 576.683 34.6386 576.682 34.5532C576.681 34.4678 576.698 34.3831 576.73 34.3041C576.762 34.225 576.81 34.1532 576.871 34.0928C576.931 34.0324 577.003 33.9846 577.082 33.9522C577.239 33.8916 577.414 33.8938 577.57 33.9585C577.725 34.0232 577.85 34.1454 577.918 34.2997C578.729 36.2556 579.514 38.2888 580.26 40.322C580.315 40.4844 580.306 40.6616 580.234 40.8173C580.162 40.9729 580.034 41.095 579.874 41.1585C579.804 41.1847 579.73 41.1978 579.655 41.1971ZM574.727 29.3068C574.606 29.3102 574.486 29.2779 574.383 29.2138C574.28 29.1497 574.198 29.0567 574.148 28.9465C573.221 26.9776 572.256 25.086 571.278 23.2201C571.238 23.145 571.213 23.0627 571.205 22.9779C571.197 22.8931 571.205 22.8075 571.23 22.7261C571.256 22.6447 571.297 22.5691 571.351 22.5037C571.406 22.4382 571.473 22.3843 571.548 22.345C571.623 22.305 571.704 22.2803 571.788 22.2722C571.872 22.2642 571.956 22.273 572.037 22.2982C572.117 22.3234 572.191 22.3644 572.256 22.4189C572.32 22.4733 572.373 22.5401 572.411 22.6153C573.402 24.4683 574.379 26.4114 575.306 28.3931C575.343 28.469 575.364 28.5514 575.368 28.6355C575.372 28.7197 575.36 28.8038 575.331 28.883C575.302 28.9621 575.258 29.0347 575.2 29.0965C575.143 29.1582 575.074 29.2079 574.997 29.2424C574.917 29.2967 574.824 29.3278 574.727 29.3325V29.3068ZM568.73 18.0342C568.62 18.0324 568.511 18.0033 568.415 17.9494C568.318 17.8955 568.237 17.8185 568.177 17.7253C567.07 15.8723 565.899 14.0707 564.715 12.3464C564.62 12.2076 564.582 12.0369 564.611 11.8709C564.64 11.7048 564.733 11.5568 564.87 11.4585C564.94 11.4097 565.019 11.3754 565.102 11.3574C565.185 11.3394 565.271 11.3382 565.355 11.3537C565.439 11.3693 565.519 11.4014 565.59 11.4481C565.662 11.4948 565.723 11.5552 565.771 11.6258C566.967 13.363 568.151 15.1903 569.284 17.0562C569.339 17.1547 569.368 17.2658 569.368 17.3788C569.368 17.4919 569.339 17.6029 569.283 17.7013C569.227 17.7997 569.147 17.882 569.05 17.9403C568.954 17.9987 568.843 18.031 568.73 18.0342ZM561.421 7.45643C561.324 7.45694 561.229 7.43515 561.142 7.39276C561.055 7.35036 560.979 7.28848 560.919 7.21193C559.632 5.52619 558.204 3.89192 556.789 2.33486C556.726 2.27345 556.677 2.19987 556.643 2.11868C556.61 2.03748 556.594 1.95037 556.596 1.86269C556.598 1.77501 556.617 1.68861 556.654 1.6088C556.69 1.529 556.742 1.45745 556.807 1.39859C556.872 1.33972 556.949 1.29478 557.032 1.2665C557.115 1.23822 557.203 1.22722 557.29 1.23416C557.378 1.2411 557.463 1.26583 557.54 1.30685C557.618 1.34787 557.686 1.40431 557.741 1.47269C559.169 3.04262 560.585 4.71549 561.923 6.41411C561.977 6.47943 562.017 6.5549 562.041 6.63603C562.065 6.71715 562.072 6.80227 562.063 6.88632C562.053 6.97037 562.027 7.05164 561.985 7.12526C561.943 7.19889 561.887 7.26337 561.82 7.31488C561.684 7.40578 561.519 7.4425 561.357 7.41783L561.421 7.45643ZM552.774 -2.05323C552.606 -2.05483 552.446 -2.11911 552.323 -2.23338C550.779 -3.71323 549.171 -5.12874 547.536 -6.45418C547.408 -6.56626 547.327 -6.72328 547.31 -6.89312C547.293 -7.06295 547.342 -7.23276 547.446 -7.36782C547.554 -7.49846 547.709 -7.58121 547.878 -7.59808C548.047 -7.61494 548.215 -7.56457 548.347 -7.4579C550.007 -6.17107 551.641 -4.66548 553.211 -3.17276C553.272 -3.11295 553.319 -3.04179 553.352 -2.96339C553.385 -2.88498 553.402 -2.80088 553.402 -2.71594C553.402 -2.631 553.385 -2.5469 553.352 -2.4685C553.319 -2.39009 553.272 -2.31894 553.211 -2.25912C553.143 -2.19859 553.064 -2.15254 552.978 -2.12378C552.891 -2.09501 552.8 -2.08414 552.709 -2.09183L552.774 -2.05323Z" fill="#162C99"/>
<path d="M357.82 216.186C357.82 224.601 355.324 232.826 350.649 239.823C345.974 246.819 339.329 252.272 331.554 255.492C323.78 258.711 315.225 259.553 306.973 257.91C298.72 256.268 291.139 252.215 285.19 246.264C279.241 240.313 275.19 232.731 273.55 224.478C271.91 216.225 272.755 207.67 275.977 199.897C279.198 192.123 284.653 185.48 291.651 180.807C298.649 176.134 306.875 173.641 315.29 173.644C320.883 173.618 326.426 174.701 331.598 176.83C336.771 178.959 341.47 182.092 345.424 186.048C349.379 190.004 352.51 194.704 354.638 199.877C356.765 205.05 357.847 210.593 357.82 216.186Z" fill="#162C99"/>
<path d="M315.264 259.359C303.815 259.352 292.836 254.802 284.739 246.707C276.642 238.613 272.088 227.635 272.078 216.186C272.078 207.648 274.61 199.301 279.353 192.202C284.097 185.102 290.839 179.569 298.727 176.301C306.615 173.033 315.295 172.177 323.669 173.842C332.044 175.506 339.736 179.617 345.775 185.654C351.813 191.69 355.926 199.382 357.593 207.756C359.261 216.13 358.407 224.81 355.142 232.699C351.876 240.588 346.344 247.332 339.246 252.077C332.148 256.822 323.802 259.357 315.264 259.359ZM315.264 174.287C306.552 174.285 298.055 177 290.958 182.054C283.862 187.108 278.517 194.249 275.67 202.483C272.822 210.717 272.613 219.634 275.071 227.993C277.53 236.351 282.534 243.735 289.386 249.116C296.738 254.972 305.865 258.149 315.264 258.124C326.248 257.931 336.716 253.433 344.415 245.598C352.115 237.762 356.429 227.216 356.429 216.231C356.429 205.246 352.115 194.7 344.415 186.865C336.716 179.029 326.248 174.531 315.264 174.339V174.287Z" fill="#162C99"/>
<path d="M333.023 209.52C333.02 206.009 331.976 202.577 330.023 199.658C328.071 196.739 325.296 194.465 322.051 193.123C318.806 191.781 315.236 191.431 311.792 192.118C308.348 192.805 305.185 194.497 302.703 196.981C300.221 199.465 298.531 202.629 297.846 206.074C297.162 209.518 297.515 213.088 298.859 216.332C300.204 219.576 302.48 222.349 305.4 224.3C308.32 226.25 311.753 227.292 315.264 227.292C317.597 227.292 319.908 226.832 322.063 225.939C324.218 225.045 326.177 223.736 327.826 222.086C329.475 220.435 330.783 218.476 331.674 216.32C332.566 214.164 333.024 211.854 333.023 209.52Z" fill="white"/>
<path d="M315.264 227.935C311.622 227.938 308.06 226.86 305.03 224.838C302 222.816 299.638 219.941 298.242 216.576C296.847 213.212 296.48 209.509 297.189 205.936C297.898 202.363 299.651 199.081 302.226 196.504C304.801 193.928 308.082 192.172 311.654 191.461C315.227 190.749 318.93 191.113 322.295 192.507C325.661 193.9 328.538 196.26 330.562 199.289C332.586 202.317 333.666 205.878 333.666 209.521C333.663 214.401 331.723 219.081 328.273 222.533C324.823 225.986 320.145 227.928 315.264 227.935ZM315.264 192.406C311.876 192.403 308.563 193.406 305.744 195.287C302.925 197.168 300.728 199.843 299.43 202.973C298.132 206.103 297.792 209.548 298.452 212.872C299.113 216.195 300.744 219.248 303.14 221.645C305.537 224.041 308.59 225.672 311.913 226.333C315.237 226.993 318.682 226.653 321.812 225.355C324.942 224.057 327.617 221.86 329.498 219.041C331.379 216.222 332.382 212.909 332.379 209.521C332.376 204.983 330.572 200.631 327.363 197.422C324.154 194.213 319.802 192.409 315.264 192.406Z" fill="#162C99"/>
<path d="M341.528 249.618C334.041 255.514 324.788 258.719 315.258 258.719C305.728 258.719 296.475 255.514 288.987 249.618C290.301 243.628 293.621 238.267 298.399 234.423C303.177 230.579 309.126 228.484 315.258 228.484C321.39 228.484 327.338 230.579 332.116 234.423C336.894 238.267 340.215 243.628 341.528 249.618Z" fill="white"/>
<path d="M315.264 259.359C305.58 259.404 296.17 256.144 288.588 250.12C288.494 250.047 288.422 249.95 288.382 249.838C288.341 249.726 288.332 249.606 288.357 249.489C289.7 243.354 293.1 237.862 297.992 233.924C302.885 229.987 308.977 227.84 315.258 227.84C321.538 227.84 327.63 229.987 332.523 233.924C337.416 237.862 340.816 243.354 342.159 249.489C342.184 249.606 342.175 249.726 342.134 249.838C342.093 249.95 342.021 250.047 341.927 250.12C334.327 256.103 324.937 259.357 315.264 259.359ZM289.708 249.361C297.01 255.046 306.01 258.114 315.264 258.072C324.507 258.07 333.489 255.007 340.808 249.361C339.45 243.604 336.188 238.475 331.55 234.805C326.913 231.134 321.172 229.137 315.258 229.137C309.343 229.137 303.602 231.134 298.965 234.805C294.328 238.475 291.066 243.604 289.708 249.361Z" fill="#162C99"/>
<path d="M422.856 273.444V149.715C422.745 142.499 424.07 135.333 426.755 128.634C429.44 121.935 433.43 115.837 438.494 110.695C443.557 105.553 449.593 101.469 456.25 98.6816C462.907 95.8942 470.052 94.4587 477.269 94.4587C484.486 94.4587 491.631 95.8942 498.288 98.6816C504.945 101.469 510.981 105.553 516.045 110.695C521.108 115.837 525.099 121.935 527.783 128.634C530.468 135.333 531.794 142.499 531.683 149.715V273.444H554.138V149.715C554.114 129.334 546.007 109.795 531.595 95.3829C517.184 80.9711 497.644 72.8642 477.263 72.8403C456.881 72.8642 437.342 80.9711 422.93 95.3829C408.518 109.795 400.411 129.334 400.388 149.715V273.444H422.856Z" fill="#162C99"/>
<path d="M572.436 219.616H389.205V424.286H572.436V219.616Z" fill="#8CBBFF"/>
<path d="M572.436 237.027L389.205 420.258V424.286H407.517L572.436 259.379V237.027Z" fill="white"/>
<path d="M389.205 270.587V337.477L507.066 219.616H440.176L389.205 270.587Z" fill="white"/>
<path d="M572.436 424.93H389.205C389.034 424.93 388.871 424.862 388.75 424.741C388.629 424.62 388.562 424.457 388.562 424.286V219.681C388.562 219.51 388.629 219.346 388.75 219.226C388.871 219.105 389.034 219.037 389.205 219.037H572.436C572.607 219.037 572.771 219.105 572.891 219.226C573.012 219.346 573.08 219.51 573.08 219.681V424.286C573.08 424.457 573.012 424.62 572.891 424.741C572.771 424.862 572.607 424.93 572.436 424.93ZM389.861 423.643H571.793V220.324H389.861V423.643Z" fill="#162C99"/>
<path d="M572.436 219.616H533.87V424.286H572.436V219.616Z" fill="#162C99"/>
<path d="M572.436 424.93H533.831C533.661 424.93 533.497 424.862 533.376 424.741C533.256 424.62 533.188 424.457 533.188 424.286V219.681C533.188 219.51 533.256 219.346 533.376 219.226C533.497 219.105 533.661 219.037 533.831 219.037H572.436C572.607 219.037 572.771 219.105 572.891 219.226C573.012 219.346 573.08 219.51 573.08 219.681V424.286C573.08 424.457 573.012 424.62 572.891 424.741C572.771 424.862 572.607 424.93 572.436 424.93ZM534.513 423.643H571.831V220.324H534.513V423.643Z" fill="#162C99"/>
<path d="M466.518 300.596C466.524 298.267 465.898 295.981 464.707 293.98C463.516 291.979 461.804 290.339 459.755 289.234C457.705 288.129 455.393 287.601 453.067 287.707C450.741 287.812 448.487 288.547 446.545 289.832C444.604 291.118 443.047 292.906 442.042 295.007C441.037 297.107 440.62 299.441 440.837 301.759C441.054 304.078 441.895 306.294 443.273 308.172C444.65 310.05 446.51 311.519 448.657 312.422L446.302 340.308H461.062L458.694 312.422C461.013 311.434 462.991 309.786 464.382 307.684C465.773 305.582 466.515 303.117 466.518 300.596Z" fill="#162C99"/>
<path d="M461.061 340.951H446.301C446.212 340.951 446.124 340.933 446.042 340.897C445.96 340.862 445.886 340.81 445.825 340.745C445.764 340.681 445.717 340.603 445.688 340.519C445.659 340.435 445.649 340.345 445.658 340.256L447.974 312.821C445.193 311.524 442.937 309.316 441.579 306.563C440.222 303.81 439.844 300.676 440.509 297.68C441.173 294.683 442.84 292.003 445.234 290.081C447.628 288.16 450.606 287.113 453.675 287.113C456.744 287.113 459.722 288.16 462.116 290.081C464.51 292.003 466.177 294.683 466.841 297.68C467.506 300.676 467.128 303.81 465.771 306.563C464.413 309.316 462.157 311.524 459.376 312.821L461.692 340.256C461.704 340.345 461.695 340.436 461.666 340.52C461.637 340.605 461.588 340.682 461.525 340.745C461.466 340.81 461.395 340.862 461.315 340.898C461.235 340.933 461.149 340.951 461.061 340.951ZM446.996 339.664H460.354L458.063 312.474C458.052 312.339 458.083 312.205 458.153 312.09C458.222 311.974 458.326 311.884 458.449 311.83C461.037 310.729 463.166 308.768 464.474 306.279C465.782 303.789 466.19 300.924 465.628 298.168C465.067 295.412 463.57 292.935 461.392 291.156C459.214 289.377 456.487 288.405 453.675 288.405C450.862 288.405 448.136 289.377 445.958 291.156C443.78 292.935 442.283 295.412 441.722 298.168C441.16 300.924 441.568 303.789 442.876 306.279C444.184 308.768 446.313 310.729 448.901 311.83C449.026 311.883 449.131 311.973 449.202 312.089C449.274 312.204 449.308 312.338 449.3 312.474L446.996 339.664Z" fill="#162C99"/>
<path d="M400.207 286.634H165.619V297.469H400.207V286.634Z" fill="#5E91FF"/>
<path d="M400.156 298.112H165.619C165.448 298.112 165.284 298.045 165.164 297.924C165.043 297.803 164.975 297.64 164.975 297.469V286.634C164.975 286.463 165.043 286.3 165.164 286.179C165.284 286.058 165.448 285.991 165.619 285.991H400.156C400.326 285.991 400.49 286.058 400.611 286.179C400.731 286.3 400.799 286.463 400.799 286.634V297.469C400.799 297.64 400.731 297.803 400.611 297.924C400.49 298.045 400.326 298.112 400.156 298.112ZM166.223 296.826H399.551V287.277H166.262L166.223 296.826Z" fill="#162C99"/>
<path d="M123.359 243.371C113.727 243.368 104.311 246.222 96.3016 251.572C88.292 256.921 82.0488 264.526 78.3617 273.424C74.6746 282.322 73.7092 292.114 75.5877 301.561C77.4661 311.008 82.104 319.685 88.9147 326.496C95.7254 333.307 104.403 337.945 113.85 339.823C123.297 341.701 133.088 340.736 141.986 337.049C150.885 333.362 158.489 327.119 163.839 319.109C169.188 311.099 172.042 301.683 172.04 292.052C172.036 279.142 166.906 266.761 157.778 257.633C148.649 248.504 136.269 243.374 123.359 243.371ZM123.359 328.005C116.248 328.008 109.295 325.902 103.381 321.952C97.4664 318.003 92.856 312.389 90.1328 305.819C87.4095 299.25 86.6957 292.02 88.0815 285.045C89.4674 278.07 92.8906 271.662 97.9184 266.633C102.946 261.603 109.353 258.178 116.327 256.789C123.302 255.401 130.532 256.112 137.102 258.833C143.673 261.554 149.289 266.162 153.24 272.075C157.191 277.988 159.3 284.94 159.3 292.052C159.3 301.585 155.514 310.728 148.774 317.47C142.034 324.213 132.892 328.002 123.359 328.005Z" fill="#5E91FF"/>
<path d="M123.359 341.388C113.6 341.391 104.06 338.5 95.9452 333.08C87.8301 327.66 81.5045 319.956 77.7683 310.941C74.0321 301.926 73.0533 292.005 74.9555 282.434C76.8577 272.863 81.5556 264.071 88.455 257.17C95.3544 250.268 104.145 245.568 113.716 243.663C123.287 241.759 133.208 242.735 142.224 246.469C151.239 250.203 158.946 256.526 164.367 264.64C169.789 272.754 172.683 282.293 172.683 292.051C172.669 305.13 167.469 317.669 158.222 326.918C148.975 336.168 136.437 341.371 123.359 341.388ZM123.359 244.014C113.854 244.012 104.563 246.828 96.6588 252.107C88.755 257.386 82.5943 264.89 78.9559 273.67C75.3176 282.451 74.3649 292.113 76.2185 301.435C78.0721 310.757 82.6487 319.32 89.3694 326.041C96.0902 332.762 104.653 337.338 113.975 339.192C123.297 341.045 132.959 340.093 141.74 336.454C150.521 332.816 158.025 326.655 163.304 318.752C168.582 310.848 171.399 301.556 171.396 292.051C171.379 279.316 166.313 267.108 157.308 258.103C148.303 249.098 136.094 244.031 123.359 244.014ZM123.359 328.649C116.12 328.651 109.043 326.507 103.023 322.487C97.0029 318.468 92.3101 312.753 89.5382 306.066C86.7662 299.379 86.0396 292.02 87.4503 284.92C88.861 277.82 92.3455 271.297 97.4632 266.178C102.581 261.058 109.102 257.571 116.202 256.158C123.301 254.745 130.66 255.469 137.348 258.239C144.036 261.008 149.753 265.699 153.775 271.718C157.797 277.736 159.943 284.813 159.943 292.051C159.933 301.752 156.076 311.053 149.218 317.914C142.359 324.775 133.06 328.635 123.359 328.649ZM123.359 256.754C116.374 256.751 109.545 258.82 103.737 262.699C97.9278 266.578 93.4 272.093 90.7258 278.546C88.0516 284.998 87.3513 292.099 88.7133 298.95C90.0754 305.801 93.4387 312.094 98.3777 317.033C103.317 321.972 109.61 325.335 116.46 326.697C123.311 328.059 130.412 327.359 136.865 324.685C143.317 322.01 148.832 317.483 152.711 311.674C156.59 305.865 158.659 299.036 158.657 292.051C158.646 282.693 154.924 273.721 148.307 267.104C141.689 260.486 132.717 256.764 123.359 256.754Z" fill="#162C99"/>
<path d="M358.025 286.634V337.451H367.985C367.985 337.361 367.985 337.271 367.985 337.168C367.985 334.038 369.228 331.037 371.441 328.824C373.654 326.611 376.656 325.367 379.785 325.367C382.915 325.367 385.916 326.611 388.129 328.824C390.342 331.037 391.586 334.038 391.586 337.168C391.586 337.271 391.586 337.361 391.586 337.451H400.156V286.634H358.025Z" fill="#5E91FF"/>
<path d="M400.156 338.094H391.547C391.461 338.096 391.375 338.08 391.295 338.047C391.215 338.014 391.143 337.964 391.084 337.901C391.025 337.84 390.978 337.767 390.947 337.688C390.916 337.608 390.901 337.523 390.904 337.438V337.283C390.962 335.788 390.718 334.296 390.188 332.897C389.657 331.497 388.851 330.219 387.816 329.137C386.781 328.056 385.539 327.194 384.164 326.603C382.79 326.011 381.31 325.702 379.813 325.695C378.317 325.687 376.834 325.98 375.453 326.557C374.072 327.135 372.821 327.984 371.775 329.054C370.729 330.125 369.909 331.395 369.364 332.788C368.819 334.182 368.56 335.672 368.603 337.168V337.438C368.608 337.524 368.595 337.609 368.564 337.689C368.533 337.769 368.485 337.842 368.423 337.901C368.363 337.964 368.291 338.014 368.212 338.047C368.132 338.08 368.046 338.096 367.96 338.094H357.974C357.803 338.094 357.639 338.026 357.519 337.906C357.398 337.785 357.33 337.621 357.33 337.451V286.634C357.33 286.463 357.398 286.3 357.519 286.179C357.639 286.058 357.803 285.991 357.974 285.991H400.156C400.327 285.991 400.49 286.058 400.611 286.179C400.732 286.3 400.799 286.463 400.799 286.634V337.451C400.799 337.621 400.732 337.785 400.611 337.906C400.49 338.026 400.327 338.094 400.156 338.094ZM392.203 336.807H399.513V287.277H358.669V336.807H367.368C367.471 333.578 368.827 330.516 371.148 328.268C373.469 326.021 376.574 324.764 379.805 324.764C383.036 324.764 386.14 326.021 388.461 328.268C390.782 330.516 392.138 333.578 392.242 336.807H392.203Z" fill="#162C99"/>
<path d="M303.193 286.634V315.806H308.92V315.639C308.92 313.844 309.633 312.122 310.902 310.853C312.172 309.583 313.893 308.87 315.688 308.87C317.484 308.87 319.205 309.583 320.475 310.853C321.744 312.122 322.457 313.844 322.457 315.639V315.806H327.399V286.634H303.193Z" fill="#5E91FF"/>
<path d="M327.398 316.45H322.457C322.283 316.449 322.117 316.38 321.994 316.257C321.933 316.194 321.886 316.119 321.855 316.037C321.824 315.955 321.81 315.868 321.814 315.781L322.457 315.639H321.814C321.814 314.014 321.168 312.457 320.02 311.308C318.871 310.159 317.313 309.514 315.688 309.514C314.064 309.514 312.506 310.159 311.357 311.308C310.208 312.457 309.563 314.014 309.563 315.639C309.563 315.999 309.28 316.45 308.92 316.45H303.193C303.023 316.45 302.859 316.382 302.738 316.261C302.618 316.141 302.55 315.977 302.55 315.806V286.634C302.55 286.463 302.618 286.3 302.738 286.179C302.859 286.058 303.023 285.991 303.193 285.991H327.398C327.569 285.991 327.733 286.058 327.853 286.179C327.974 286.3 328.042 286.463 328.042 286.634V315.806C328.042 315.977 327.974 316.141 327.853 316.261C327.733 316.382 327.569 316.45 327.398 316.45ZM323.088 315.163H326.807V287.277H303.837V315.163H308.289C308.4 313.276 309.228 311.503 310.604 310.206C311.979 308.91 313.798 308.187 315.688 308.187C317.579 308.187 319.397 308.91 320.773 310.206C322.148 311.503 322.976 313.276 323.088 315.163Z" fill="#162C99"/>
</svg>
