<svg width="54" height="56" viewBox="0 0 54 56" fill="none" xmlns="http://www.w3.org/2000/svg">
<path d="M53.6667 40.3386C53.6665 43.9857 52.4203 47.5233 50.1346 50.3652C47.8489 53.2072 44.6609 55.183 41.0987 55.9653L39.3973 50.8613C40.9555 50.6053 42.4373 50.0064 43.736 49.1081C45.0346 48.2098 46.1175 47.0344 46.9067 45.6666H40.3333C38.9189 45.6666 37.5623 45.1047 36.5621 44.1045C35.5619 43.1044 35 41.7478 35 40.3333V29.6666C35 28.2522 35.5619 26.8956 36.5621 25.8954C37.5623 24.8952 38.9189 24.3333 40.3333 24.3333H48.168C47.5173 19.1784 45.0078 14.438 41.1105 11.0018C37.2132 7.56552 32.1959 5.66952 27 5.66952C21.8041 5.66952 16.7869 7.56552 12.8895 11.0018C8.99222 14.438 6.48276 19.1784 5.83201 24.3333H13.6667C15.0812 24.3333 16.4377 24.8952 17.4379 25.8954C18.4381 26.8956 19 28.2522 19 29.6666V40.3333C19 41.7478 18.4381 43.1044 17.4379 44.1045C16.4377 45.1047 15.0812 45.6666 13.6667 45.6666H5.66668C4.25219 45.6666 2.89563 45.1047 1.89544 44.1045C0.895246 43.1044 0.333344 41.7478 0.333344 40.3333V27C0.333344 12.272 12.272 0.333313 27 0.333313C41.728 0.333313 53.6667 12.272 53.6667 27V40.3386Z" fill="white"/>
</svg>
