<svg width="170" height="40" viewBox="0 0 170 40" fill="none" xmlns="http://www.w3.org/2000/svg">
<g clip-path="url(#clip0_11783_40072)">
<path d="M36.7311 9.65108L29.8502 2.77057C28.3865 1.3069 26.4349 0.5 24.3644 0.5H14.6374C12.5669 0.5 10.6152 1.3069 9.15149 2.77057L2.27067 9.65108C0.806933 11.1148 0 13.0663 0 15.1367V24.8633C0 26.9337 0.806933 28.8852 2.27067 30.3489L9.14523 37.2232C10.609 38.6868 12.5606 39.4937 14.6311 39.4937H24.3581C26.4286 39.4937 28.3802 38.6868 29.844 37.2232L36.7186 30.3489C38.1885 28.8852 38.9892 26.9337 38.9892 24.8633V15.1367C38.9892 13.0663 38.1823 11.1148 36.7186 9.65108H36.7311ZM14.8125 26.9837C19.0911 26.9274 23.3698 26.8774 27.6484 26.8211V30.3739C27.6484 30.9056 27.2168 31.3372 26.6851 31.3372H18.2967C16.8768 29.786 15.4693 28.241 14.0494 26.6897C12.8796 26.7148 11.7162 26.7335 10.5527 26.7648C10.0648 26.7773 9.66442 26.3832 9.66442 25.8953V17.5261C11.2345 16.125 12.7921 14.7239 14.3621 13.3228V9.80746C14.3621 9.18196 14.8688 8.66905 15.5006 8.66905H23.6262C24.9711 10.2015 26.316 11.734 27.6671 13.2665C23.351 13.2665 19.0348 13.254 14.725 13.254C14.4873 13.4854 14.3496 13.623 14.1119 13.8607C14.0807 17.9702 14.0556 22.0798 14.0244 26.1956C14.3371 26.5021 14.506 26.671 14.8188 26.9837H14.8125Z" fill="white"/>
<path d="M57.7238 24.9134C56.7355 25.6077 55.5282 25.958 54.102 25.958C53.1637 25.958 52.3255 25.8016 51.5936 25.4951C50.8618 25.1824 50.2425 24.732 49.7483 24.144C49.2479 23.5498 48.8726 22.8555 48.6224 22.0611C48.3659 21.2605 48.2408 20.3848 48.2408 19.4278C48.2408 18.4707 48.3659 17.5638 48.6224 16.7631C48.8788 15.9625 49.2416 15.2744 49.7233 14.6927C50.205 14.111 50.7992 13.6669 51.5123 13.3541C52.2254 13.0414 53.0449 12.8913 53.9644 12.8913C54.8839 12.8913 55.7096 13.0476 56.4415 13.3541C57.1734 13.6669 57.7801 14.111 58.2618 14.6927C58.7434 15.2744 59.0437 15.9812 59.175 16.8069H63.8227C63.6726 15.1744 63.1722 13.7357 62.3152 12.4972C61.4582 11.2587 60.3198 10.2892 58.8936 9.59488C57.4674 8.90057 55.8222 8.55029 53.9644 8.55029C52.1066 8.55029 50.6366 8.85679 49.3292 9.46352C48.0219 10.0765 46.9397 10.8897 46.0765 11.903C45.2132 12.9163 44.5752 14.0484 44.1623 15.2995C43.7495 16.5505 43.5431 17.814 43.5431 19.09V19.7092C43.5431 20.8727 43.7432 22.0736 44.1498 23.3184C44.5564 24.5569 45.182 25.7015 46.0389 26.7586C46.8959 27.8095 47.9906 28.6664 49.323 29.3232C50.6553 29.98 52.2504 30.3115 54.1145 30.3115C56.0849 30.3115 57.7926 29.9362 59.2313 29.1856C60.6701 28.435 61.8023 27.4342 62.6405 26.1832C63.4787 24.9322 63.9791 23.5561 64.148 22.0549H59.5253C59.3189 23.2746 58.7247 24.2316 57.7363 24.9259L57.7238 24.9134Z" fill="white"/>
<path d="M70.7098 15.8686C70.0092 16.763 69.5713 17.9452 69.4024 19.4151V14.2923H65.7931V29.7359H70.3282V21.8734C70.3282 20.6161 70.666 19.6591 71.3416 19.0023C72.0172 18.3455 72.9742 18.014 74.2128 18.014H75.3387V14.0984H74.7445C72.9805 14.0984 71.6293 14.6926 70.7035 15.8748L70.7098 15.8686Z" fill="white"/>
<path d="M86.0415 20.466L84.7467 25.8641H84.1899L80.7558 14.2861H76.1894L80.9497 29.3857H83.9022L83.7396 30.0675C83.6082 30.5553 83.4393 30.9369 83.2329 31.2184C83.0265 31.4998 82.7575 31.7063 82.4197 31.8251C82.0819 31.9502 81.6691 32.0065 81.1812 32.0065H77.9659V35.8408H80.7245C82.1007 35.8408 83.2329 35.6907 84.1211 35.3905C85.0156 35.0902 85.7288 34.5773 86.2667 33.8517C86.7984 33.1324 87.2175 32.1691 87.5178 30.9682L89.6508 22.7241C89.1567 21.5231 88.0995 20.9539 86.0415 20.466ZM87.5178 14.2861L86.1541 19.9969C89.9698 20.0156 90.6579 18.9773 91.5337 14.2861H87.5178ZM107.566 18.552C107.241 17.6075 106.759 16.7818 106.127 16.075C105.502 15.3682 104.751 14.8177 103.875 14.4237C103 14.0296 102.03 13.8357 100.96 13.8357C99.7594 13.8357 98.6772 14.1047 97.7201 14.6363C96.7631 15.1743 95.9999 15.9687 95.437 17.032C95.2431 17.3948 95.0929 17.7889 94.9553 18.2079V14.2861H91.7026C91.4273 19.165 91.8652 20.2909 95.7873 21.1916C95.8373 20.5286 96.0187 19.9406 96.3252 19.4402C96.688 18.8397 97.1759 18.3831 97.7764 18.0766C98.3769 17.7638 99.015 17.6075 99.6906 17.6075C100.46 17.6075 101.136 17.7951 101.705 18.1579C102.28 18.527 102.724 19.0336 103.043 19.6841C103.362 20.3284 103.525 21.0978 103.525 21.9797C103.525 22.8617 103.362 23.6373 103.043 24.3191C102.724 24.9946 102.28 25.5201 101.705 25.8954C101.136 26.2707 100.46 26.4583 99.6906 26.4583C99.0525 26.4583 98.4332 26.3082 97.8327 26.0079C97.2322 25.7077 96.7381 25.2699 96.3502 24.6944C95.9687 24.1252 95.7747 23.4309 95.7747 22.624V21.6232C93.3665 21.5794 92.1404 21.9047 91.3523 23.1932V35.3592H95.8873V27.7844C96.4065 28.535 97.0446 29.1167 97.8202 29.517C98.746 29.9924 99.7969 30.2363 100.96 30.2363C102.124 30.2363 103.087 30.0362 103.963 29.6421C104.832 29.248 105.577 28.6913 106.184 27.9658C106.797 27.2402 107.259 26.3958 107.578 25.4262C107.897 24.463 108.06 23.4246 108.06 22.3175V21.667C108.06 20.5411 107.898 19.5027 107.566 18.552Z" fill="white"/>
<path d="M115.304 10.1204H111.106V14.2925H108.742V17.6201H111.094L111.081 23.7062C111.081 25.2637 111.307 26.5022 111.757 27.4092C112.207 28.3224 112.914 28.973 113.871 29.367C114.828 29.7611 116.086 29.9613 117.649 29.9613H119.82V26.1269H117.537C116.824 26.1269 116.273 25.933 115.885 25.5515C115.498 25.1637 115.31 24.607 115.31 23.8751V17.6201H119.82V14.2925H115.31V10.1204H115.304Z" fill="white"/>
<path d="M137.917 18.552C137.585 17.6075 137.11 16.7818 136.478 16.075C135.846 15.3682 135.095 14.8177 134.22 14.4237C133.35 14.0296 132.374 13.8357 131.305 13.8357C130.104 13.8357 129.022 14.1047 128.065 14.6363C127.107 15.1743 126.344 15.9687 125.781 17.032C125.594 17.3948 125.437 17.7889 125.306 18.2079V14.2861H121.697V35.3592H126.232V27.7844C126.751 28.535 127.395 29.1167 128.165 29.517C129.097 29.9924 130.141 30.2363 131.305 30.2363C132.468 30.2363 133.432 30.0362 134.307 29.6421C135.183 29.248 135.921 28.6913 136.534 27.9658C137.141 27.2402 137.61 26.3958 137.929 25.4262C138.248 24.463 138.411 23.4246 138.411 22.3175V21.667C138.411 20.5411 138.242 19.5027 137.917 18.552ZM133.394 24.3191C133.075 24.9946 132.625 25.5201 132.055 25.8954C131.48 26.2707 130.811 26.4583 130.041 26.4583C129.397 26.4583 128.778 26.3082 128.177 26.0079C127.577 25.7077 127.082 25.2699 126.701 24.6944C126.313 24.1252 126.119 23.4309 126.119 22.624V21.5857C126.119 20.76 126.307 20.0407 126.67 19.4402C127.039 18.8397 127.52 18.3831 128.121 18.0766C128.721 17.7638 129.359 17.6075 130.041 17.6075C130.811 17.6075 131.48 17.7951 132.055 18.1579C132.625 18.527 133.075 19.0336 133.394 19.6841C133.713 20.3284 133.869 21.0978 133.869 21.9797C133.869 22.8617 133.713 23.6373 133.394 24.3191Z" fill="white"/>
<path d="M152.466 16.7507C151.903 15.8375 151.084 15.1557 150.002 14.7053C148.92 14.255 147.594 14.0298 146.017 14.0298C145.473 14.0298 144.891 14.0423 144.266 14.0611C143.646 14.0798 143.046 14.1048 142.464 14.1424C141.882 14.1799 141.363 14.2174 140.913 14.255V18.0643C141.495 18.0205 142.151 17.9892 142.871 17.9642C143.596 17.9329 144.297 17.9141 144.973 17.8891C145.648 17.8766 146.192 17.8641 146.605 17.8641C147.437 17.8641 148.038 18.058 148.413 18.4396C148.788 18.8274 148.976 19.4216 148.976 20.2285V20.2598H146.186C144.816 20.2598 143.603 20.4349 142.552 20.7789C141.495 21.1292 140.681 21.6609 140.1 22.3865C139.518 23.1121 139.224 24.0378 139.224 25.1637C139.224 26.1958 139.462 27.084 139.931 27.8221C140.4 28.5664 141.051 29.1356 141.889 29.5297C142.721 29.9238 143.697 30.1239 144.804 30.1239C145.911 30.1239 146.78 29.9238 147.525 29.5297C148.263 29.1356 148.845 28.5727 149.27 27.8409C149.458 27.5093 149.614 27.1403 149.733 26.7462V29.7236H153.311V20.2598C153.311 18.8336 153.029 17.6639 152.466 16.7507ZM148.976 24.0065C148.938 24.7759 148.788 25.3764 148.526 25.808C148.263 26.2396 147.925 26.5461 147.525 26.7275C147.118 26.9026 146.662 26.9964 146.155 26.9964C145.367 26.9964 144.76 26.8025 144.341 26.4147C143.915 26.0332 143.703 25.5265 143.703 24.9073C143.703 24.2505 143.915 23.7313 144.341 23.3435C144.76 22.9619 145.367 22.768 146.155 22.768H148.976V24.0065Z" fill="white"/>
<path d="M165.684 14.2861L162.913 25.8642H162.356L158.922 14.2861H154.356L159.116 29.392H162.068L161.906 30.0675C161.774 30.5554 161.605 30.9432 161.399 31.2247C161.193 31.5062 160.917 31.7063 160.58 31.8314C160.242 31.9503 159.829 32.0128 159.341 32.0128H156.132V35.8472H158.891C160.261 35.8472 161.393 35.697 162.287 35.3968C163.182 35.0966 163.895 34.5836 164.427 33.8581C164.964 33.1325 165.377 32.1692 165.678 30.9682L169.988 14.2861H165.678H165.684Z" fill="white"/>
</g>
<defs>
<clipPath id="clip0_11783_40072">
<rect width="170" height="39" fill="white" transform="translate(0 0.5)"/>
</clipPath>
</defs>
</svg>
