<svg width="140" height="30" viewBox="0 0 149 44" fill="none" xmlns="http://www.w3.org/2000/svg">
<path d="M50.895 27.4389C50.7864 28.1681 50.5573 28.8069 50.2053 29.36C49.8533 29.9132 49.3736 30.345 48.7651 30.6555C48.1565 30.966 47.4191 31.1194 46.554 31.1194C45.3907 31.1194 44.4504 30.8565 43.7345 30.3319C43.0161 29.8061 42.4971 29.0638 42.1725 28.1062C41.8468 27.1498 41.6857 26.078 41.6857 24.892C41.6857 23.6239 41.8611 22.5129 42.2131 21.5553C42.5639 20.5977 43.0985 19.8506 43.8156 19.3093C44.5327 18.7705 45.4312 18.5004 46.5135 18.5004C47.7843 18.5004 48.7722 18.8454 49.475 19.533C50.1778 20.2206 50.5824 21.0771 50.6921 22.1013H57.0615C56.9529 20.2955 56.4387 18.7039 55.5199 17.3299C54.5999 15.9548 53.3697 14.8818 51.8269 14.1145C50.2852 13.346 48.5145 12.9618 46.5135 12.9618C44.6735 12.9618 43.0436 13.2723 41.6249 13.892C40.2049 14.513 39.0141 15.3623 38.0547 16.4413C37.0942 17.519 36.3711 18.7526 35.8843 20.142C35.3974 21.5303 35.1528 22.9804 35.1528 24.4899V25.2584C35.1528 26.7144 35.3891 28.1241 35.864 29.4849C36.3353 30.847 37.0465 32.0663 37.9939 33.1453C38.9401 34.223 40.1166 35.0866 41.5222 35.7338C42.9278 36.3809 44.6067 36.7045 46.5528 36.7045C48.499 36.7045 50.3401 36.3131 51.908 35.5315C53.4759 34.75 54.7336 33.6639 55.681 32.2757C56.6272 30.8875 57.1415 29.2768 57.2226 27.4425H50.8938L50.895 27.4389ZM80.3496 24.3246C80.3496 22.3023 79.9153 20.4359 79.0502 18.7229C78.1851 17.0111 76.9334 15.6229 75.2975 14.557C73.6604 13.4935 71.6522 12.9594 69.2729 12.9594C67.4604 12.9594 65.8448 13.277 64.4249 13.9099C63.005 14.5439 61.8153 15.4004 60.8548 16.4794C59.8942 17.5571 59.1652 18.7776 58.664 20.1397C58.1629 21.5017 57.9123 22.9245 57.9123 24.4067V25.2156C57.9123 26.6443 58.1629 28.0408 58.664 29.4017C59.1652 30.7626 59.9014 31.9961 60.8751 33.1024C61.8487 34.2076 63.0598 35.0831 64.506 35.7314C65.9522 36.3785 67.6239 36.7021 69.5175 36.7021C71.4112 36.7021 73.0328 36.3714 74.467 35.7112C75.9001 35.0498 77.0897 34.1397 78.0371 32.9799C78.9834 31.8213 79.6193 30.4997 79.9439 29.0163H73.9814C73.7105 29.6907 73.1962 30.257 72.4386 30.715C71.6809 31.173 70.7084 31.4025 69.5187 31.4025C68.2193 31.4025 67.1657 31.1337 66.3531 30.5948C65.5429 30.0559 64.9475 29.2934 64.5681 28.3097C64.3569 27.7624 64.2053 27.1629 64.1123 26.5098H80.3508V24.3258L80.3496 24.3246ZM64.16 22.8281C64.2614 22.2428 64.4094 21.7111 64.6086 21.2305C65.0143 20.2455 65.6086 19.5044 66.3925 19.0048C67.1765 18.5052 68.137 18.2566 69.2741 18.2566C70.4113 18.2566 71.3086 18.5052 72.0531 19.0048C72.7977 19.5044 73.3514 20.2182 73.7177 21.1484C73.9134 21.6469 74.0566 22.2071 74.1484 22.8269H64.1624L64.16 22.8281ZM132.954 24.3246C132.954 22.3023 132.52 20.4359 131.654 18.7229C130.789 17.0111 129.538 15.6229 127.902 14.557C126.265 13.4935 124.257 12.9594 121.877 12.9594C120.065 12.9594 118.449 13.277 117.029 13.9099C115.609 14.5439 114.42 15.4004 113.459 16.4794C112.499 17.5571 111.769 18.7776 111.268 20.1397C110.767 21.5005 110.517 22.9245 110.517 24.4067V25.2156C110.517 26.6443 110.766 28.0408 111.268 29.4017C111.768 30.7626 112.506 31.9961 113.479 33.1024C114.453 34.2076 115.663 35.0831 117.11 35.7314C118.556 36.3785 120.228 36.7021 122.122 36.7021C124.015 36.7021 125.637 36.3714 127.071 35.7112C128.504 35.0498 129.694 34.1397 130.641 32.9799C131.588 31.8213 132.224 30.4997 132.548 29.0163H126.584C126.315 29.6907 125.801 30.257 125.043 30.715C124.285 31.173 123.313 31.4025 122.123 31.4025C120.824 31.4025 119.77 31.1337 118.957 30.5948C118.147 30.0559 117.552 29.2934 117.172 28.3097C116.961 27.7624 116.81 27.1629 116.717 26.5098H132.955V24.3258L132.954 24.3246ZM116.764 22.8281C116.866 22.2428 117.014 21.7111 117.212 21.2305C117.617 20.2455 118.212 19.5044 118.996 19.0048C119.78 18.5064 120.74 18.2566 121.876 18.2566C123.012 18.2566 123.91 18.5052 124.655 19.0048C125.4 19.5033 125.953 20.2182 126.32 21.1484C126.515 21.6469 126.658 22.2071 126.749 22.8269H116.764V22.8281ZM147.768 13.4448C145.225 13.4448 143.286 14.2929 141.946 15.9928C140.937 17.274 140.308 18.9679 140.06 21.0747V13.7279H134.867V35.892H141.398V24.6077C141.398 22.8007 141.885 21.4268 142.859 20.4823C143.832 19.5389 145.212 19.0667 146.997 19.0667H148.62V13.4459H147.768V13.4448ZM95.9187 30.7578L95.1121 36.4868C94.1361 36.714 93.1027 36.827 92.0109 36.827C90.1173 36.827 88.4921 36.5034 87.1366 35.8563C87.0209 35.8016 86.9087 35.7445 86.7978 35.6862C85.5974 35.0593 84.6249 34.2397 83.8768 33.2273C83.0594 32.1222 82.4962 30.8886 82.1872 29.5266C82.1872 29.5266 81.9079 28.3025 81.9067 26.925C81.9067 25.6117 82.7146 19.3082 84.0152 10.24H90.2987C88.9181 19.3712 88.059 25.6938 88.0447 26.8393C88.0339 27.6471 88.2428 28.4346 88.2428 28.4346C88.5208 29.485 88.9909 30.0405 89.1436 30.2118C89.3107 30.3985 89.4992 30.5686 89.7056 30.7197C90.4418 31.2586 91.4573 31.5274 92.7567 31.5274C93.9463 31.5274 94.9522 31.299 95.7744 30.8399C95.8233 30.8125 95.871 30.784 95.9187 30.7566V30.7578ZM110.644 30.7578L109.838 36.4868C108.862 36.714 107.827 36.827 106.735 36.827C104.842 36.827 103.218 36.5034 101.861 35.8563C101.746 35.8016 101.634 35.7445 101.523 35.6862C100.323 35.0593 99.3492 34.2397 98.6011 33.2273C97.7837 32.1222 97.2217 30.8886 96.9127 29.5266C96.9127 29.5266 96.6323 28.3025 96.6323 26.925C96.6323 25.5475 97.4401 19.3082 98.7407 10.24H105.023C103.644 19.3712 102.783 25.6938 102.77 26.8393C102.759 27.6471 102.968 28.4346 102.968 28.4346C103.245 29.485 103.715 30.0405 103.869 30.2118C104.036 30.3985 104.225 30.5686 104.431 30.7197C105.167 31.2586 106.183 31.5274 107.482 31.5274C108.672 31.5274 109.678 31.299 110.499 30.8399C110.548 30.8125 110.597 30.784 110.643 30.7566L110.644 30.7578ZM27.4542 39.7605V39.7617C26.7227 40.818 25.8123 41.6471 24.748 42.2253C23.6669 42.8141 22.4868 43.1115 21.2399 43.1115C20.9428 43.1115 20.6409 43.0937 20.3414 43.0592H20.3366H20.3318C18.2055 42.7701 16.0983 41.7554 14.0686 40.0448C12.5007 38.7232 10.9901 36.9995 9.57378 34.9165L8.89722 35.7469C8.59056 36.1228 8.13714 36.3393 7.65508 36.3393C6.90455 36.3393 6.25901 35.8325 6.0848 35.1081L5.20063 31.4192C5.14216 31.1753 4.96676 30.9755 4.73289 30.8851L1.18186 29.5194C0.606732 29.2982 0.214163 28.7795 0.159275 28.1669C0.104387 27.5555 0.396726 26.9761 0.921742 26.655L4.16849 24.6767C4.38208 24.5458 4.5193 24.3186 4.53242 24.0688L4.73766 20.2812C4.76152 19.8518 4.94886 19.4592 5.26506 19.1761C5.56456 18.9097 5.94997 18.7621 6.35089 18.7621C6.75181 18.7621 7.09307 18.8954 7.39019 19.1488L10.2802 21.6159C10.4186 21.7337 10.5952 21.7991 10.7765 21.7991C10.8422 21.7991 10.9078 21.7908 10.9722 21.773L14.6497 20.7975C14.7893 20.7606 14.9301 20.7416 15.0709 20.7416C15.6043 20.7416 16.1019 21.0104 16.4038 21.4589C16.7057 21.9109 16.7593 22.4581 16.5493 22.9613L15.09 26.4646C14.9934 26.6966 15.0172 26.9595 15.1545 27.17L17.2199 30.3557C17.5457 30.8565 17.5695 31.4692 17.2832 31.9926C17.0004 32.51 16.461 32.8312 15.8752 32.8312C15.831 32.8312 15.7857 32.8288 15.7415 32.8253L14.8251 32.7527C15.2499 33.3534 15.6914 33.9209 16.1436 34.4478C16.5804 34.9558 17.4705 35.9229 18.5289 36.6997C19.5909 37.4789 20.5442 37.8738 21.364 37.8738C21.6086 37.8738 21.8448 37.8369 22.0656 37.7656C22.6515 37.5633 23.1789 37.0578 23.6335 36.2643C24.8899 33.953 25.2789 30.5698 24.7873 26.2089C24.3948 23.0089 23.5261 19.6948 22.2744 16.6245C21.6193 15.0174 20.8676 13.4983 20.0383 12.1089C19.1685 10.6505 18.2127 9.33241 17.1973 8.19161C16.4217 7.31608 15.5315 6.52264 14.6879 5.9564C13.6224 5.24147 12.6439 4.87746 11.7788 4.87746C10.9138 4.87746 10.1966 5.23314 9.56901 5.96473C8.79461 6.92471 8.23737 8.2154 7.91282 9.80348C7.66105 11.0359 7.54173 12.4705 7.5465 14.1906C7.55127 14.6629 7.37467 15.1102 7.04773 15.4539C6.7196 15.7977 6.27811 15.9964 5.8032 16.0142C5.78053 16.0142 5.75667 16.0142 5.7328 16.0142C5.26268 16.0142 4.8176 15.8358 4.47873 15.5099C4.13866 15.1839 3.94178 14.7461 3.92388 14.2751C3.84871 12.2968 3.96326 10.5374 4.2723 8.89702C4.45964 7.85853 4.7472 6.87356 5.12545 5.97187C5.53592 4.99404 6.04662 4.13279 6.64323 3.41309C7.2995 2.62203 8.056 2.00583 8.89364 1.58234C9.80765 1.1196 10.8183 0.885254 11.9006 0.885254C12.1702 0.885254 12.4471 0.900718 12.7251 0.929268H12.7298H12.7346C14.1724 1.10889 15.5458 1.62398 16.93 2.50188C18.0194 3.19302 19.1195 4.11732 20.2901 5.32831L20.2925 5.33069L20.2949 5.33306C21.537 6.6523 22.7064 8.17733 23.7731 9.86652C24.7885 11.4748 25.7097 13.2306 26.5139 15.0887C28.0579 18.6598 29.1306 22.5152 29.6151 26.2386V26.2422C30.3251 32.0794 29.5972 36.6259 27.4518 39.7581L27.4542 39.7605Z" fill="white"/>
</svg>
