<svg width="25" height="27" viewBox="0 0 25 27" fill="none" xmlns="http://www.w3.org/2000/svg">
<path d="M0.611672 0.985384C0.306572 1.29678 0.130005 1.7816 0.130005 2.40945V24.8047C0.130005 25.4325 0.306572 25.9174 0.611672 26.2288L0.686974 26.2971L13.5583 13.7526V13.4564L0.686974 0.911966L0.611672 0.985384Z" fill="white"/>
<path d="M17.8442 17.9363L13.5585 13.7527V13.4565L17.8493 9.27287L17.9454 9.3273L23.027 12.1463C24.4772 12.9463 24.4772 14.2628 23.027 15.0679L17.9454 17.8818L17.8442 17.9363Z" fill="#D4D4D4"/>
<path d="M17.9423 17.8818L13.5554 13.6046L0.608765 26.2288C1.09043 26.7225 1.8759 26.782 2.76913 26.2883L17.9423 17.8818Z" fill="#979797"/>
<path d="M17.9423 9.32722L2.76913 0.920782C1.8759 0.432167 1.09043 0.491661 0.608765 0.985338L13.5554 13.6045L17.9423 9.32722Z" fill="white"/>
</svg>
