<svg width="65" height="64" viewBox="0 0 65 64" fill="none" xmlns="http://www.w3.org/2000/svg">
<path d="M57.7403 24C57.7413 27.423 56.7289 30.7696 54.8306 33.6179C52.9324 36.4663 50.2332 38.6888 47.0736 40.0054V40C47.0736 33.9884 44.6855 28.2231 40.4347 23.9723C36.1839 19.7214 30.4185 17.3334 24.4069 17.3334H24.4016C25.9451 13.6367 28.721 10.5885 32.2576 8.70684C35.7942 6.82523 39.8733 6.22628 43.8015 7.0118C47.7297 7.79732 51.2647 9.91883 53.8058 13.0158C56.3468 16.1127 57.7371 19.994 57.7403 24ZM19.0736 8.00002C16.2446 8.00002 13.5315 9.12383 11.5311 11.1242C9.53075 13.1246 8.40694 15.8377 8.40694 18.6667V22.6667H13.7403V18.6667C13.7403 17.2522 14.3022 15.8956 15.3024 14.8955C16.3026 13.8953 17.6591 13.3334 19.0736 13.3334H23.0736V8.00002H19.0736ZM51.0736 41.3334V45.3334C51.0736 46.7478 50.5117 48.1044 49.5115 49.1046C48.5113 50.1048 47.1548 50.6667 45.7403 50.6667H41.7403V56H45.7403C48.5693 56 51.2824 54.8762 53.2827 52.8758C55.2831 50.8754 56.4069 48.1623 56.4069 45.3334V41.3334H51.0736ZM24.4069 57.3334C29.004 57.3334 33.4128 55.5072 36.6635 52.2565C39.9141 49.0059 41.7403 44.5971 41.7403 40C41.7403 35.4029 39.9141 30.9941 36.6635 27.7435C33.4128 24.4929 29.004 22.6667 24.4069 22.6667C19.8099 22.6667 15.4011 24.4929 12.1504 27.7435C8.89979 30.9941 7.07361 35.4029 7.07361 40C7.07361 44.5971 8.89979 49.0059 12.1504 52.2565C15.4011 55.5072 19.8099 57.3334 24.4069 57.3334ZM24.4069 33.3334L31.0736 40L24.4069 46.6667L17.7403 40L24.4069 33.3334Z" fill="white"/>
</svg>
