<svg width="28" height="28" viewBox="0 0 28 28" fill="none" xmlns="http://www.w3.org/2000/svg">
<path d="M23.0358 15.1666C23.8551 13.989 24.3497 12.6162 24.4698 11.1866C24.59 9.75702 24.3314 8.32101 23.7201 7.02312C23.1088 5.72523 22.1664 4.61127 20.9877 3.79337C19.8091 2.97547 18.4358 2.48249 17.006 2.36406C15.5763 2.24563 14.1406 2.50591 12.8434 3.11873C11.5462 3.73154 10.4334 4.67525 9.61688 5.85486C8.80037 7.03448 8.30901 8.40837 8.19226 9.83825C8.07551 11.2681 8.33749 12.7035 8.95183 14" stroke="white" stroke-width="1.5" stroke-linecap="round" stroke-linejoin="round"/>
<path d="M14.511 13.6114V7.38842M16.3333 7.38842V5.83325M16.3333 15.1666V13.6114M14.511 10.4999H18.1557M18.1557 10.4999C18.76 10.4999 19.25 11.0226 19.25 11.6666V12.4448C19.25 13.0888 18.76 13.6114 18.1568 13.6114H13.4167M18.1557 10.4999C18.7588 10.4999 19.25 9.97725 19.25 9.33325V8.55509C19.25 7.91109 18.76 7.38842 18.1568 7.38842H13.4167M3.5 16.3333H6.29417C6.63717 16.3333 6.9755 16.4103 7.28233 16.5596L9.66467 17.7123C9.9715 17.8604 10.3098 17.9374 10.654 17.9374H11.8697C13.0457 17.9374 14 18.8603 14 19.9989C14 20.0456 13.9685 20.0853 13.923 20.0981L10.9585 20.9183C10.4266 21.0652 9.85934 21.0138 9.3625 20.7736L6.81567 19.5416M14 19.2499L19.3585 17.6038C19.825 17.4606 20.3248 17.4685 20.7866 17.6262C21.2483 17.784 21.6484 18.0836 21.9298 18.4823C22.3603 19.0773 22.1853 19.9313 21.5577 20.2929L12.7902 25.3528C12.516 25.5114 12.2124 25.6125 11.8979 25.65C11.5834 25.6875 11.2646 25.6606 10.9608 25.5709L3.5 23.3566" stroke="white" stroke-width="1.5" stroke-linecap="round" stroke-linejoin="round"/>
</svg>
