<svg width="65" height="64" viewBox="0 0 65 64" fill="none" xmlns="http://www.w3.org/2000/svg">
<path d="M16.407 21.3334C16.407 15.4401 21.1803 10.6667 27.0737 10.6667C32.967 10.6667 37.7403 15.4401 37.7403 21.3334C37.7403 27.2267 32.967 32.0001 27.0737 32.0001C21.1803 32.0001 16.407 27.2267 16.407 21.3334ZM32.407 48.5334C32.407 45.9734 33.7403 43.5734 35.607 41.9734V38.6667C35.607 38.5334 35.6603 38.3734 35.6603 38.2401C33.0203 37.6534 30.1403 37.3334 27.0737 37.3334C15.287 37.3334 5.74033 42.1067 5.74033 48.0001V53.3334H32.407V48.5334ZM59.0737 48.8001V58.1334C59.0737 59.7334 57.4737 61.3334 55.607 61.3334H40.9403C39.3403 61.3334 37.7403 59.7334 37.7403 57.8667V48.5334C37.7403 46.9334 39.3403 45.3334 40.9403 45.3334V38.6667C40.9403 34.9334 44.6737 32.0001 48.407 32.0001C52.1403 32.0001 55.8737 34.9334 55.8737 38.6667V40.0001H52.407V38.6667C52.407 36.5334 50.5403 35.2001 48.407 35.2001C46.2737 35.2001 44.407 36.5334 44.407 38.6667V45.3334H55.8737C57.4737 45.3334 59.0737 46.9334 59.0737 48.8001Z" fill="white"/>
</svg>
