<svg width="65" height="64" viewBox="0 0 65 64" fill="none" xmlns="http://www.w3.org/2000/svg">
<g clip-path="url(#clip0_11819_40222)">
<path d="M44.6559 46.2221H58.6292C57.4559 30.7377 50.7892 21.1199 42.2381 15.431L46.1315 6.93322C46.2492 6.66358 46.2981 6.36894 46.2739 6.07572C46.2497 5.78251 46.153 5.49989 45.9927 5.25321C45.8324 5.00653 45.6133 4.8035 45.3552 4.66232C45.097 4.52115 44.8079 4.44625 44.5137 4.44434H20.1404C19.8462 4.44625 19.557 4.52115 19.2989 4.66232C19.0408 4.8035 18.8217 5.00653 18.6614 5.25321C18.501 5.49989 18.4044 5.78251 18.3802 6.07572C18.356 6.36894 18.4049 6.66358 18.5226 6.93322L20.6559 11.5554H38.647L37.047 15.111H33.7581C34.7615 17.8122 35.4998 20.6046 35.9626 23.4488C36.2594 25.2135 36.4494 26.9945 36.5315 28.7821L33.7226 30.7554C33.7306 28.4559 33.5402 26.16 33.1537 23.8932C32.6631 20.8761 31.8157 17.9281 30.6293 15.111H28.8515C27.2095 17.183 25.7352 19.3826 24.4426 21.6888C23.3998 23.6666 22.5141 25.7233 21.7937 27.8399L19.3581 26.2221C20.0706 24.1768 20.9445 22.1913 21.9715 20.2843C23.0113 18.4972 24.1509 16.7701 25.3848 15.111H22.2737L22.4159 15.4132C12.9937 21.6888 5.82925 32.711 5.82925 51.111C5.80523 51.4978 5.85808 51.8855 5.98476 52.2517C6.11144 52.618 6.30944 52.9555 6.5673 53.2448C6.82517 53.534 7.13781 53.7693 7.48714 53.9371C7.83648 54.1048 8.21559 54.2017 8.60258 54.2221H22.8248C22.2141 53.5865 21.7925 52.7935 21.6071 51.9318C21.4217 51.07 21.4799 50.1737 21.7752 49.3432C22.0705 48.5127 22.5912 47.7809 23.2789 47.2296C23.9667 46.6784 24.7944 46.3295 25.6693 46.2221C25.2435 45.5 25.0165 44.6781 25.0115 43.8399C25.0115 42.5669 25.5172 41.346 26.4174 40.4458C27.3175 39.5456 28.5384 39.0399 29.8115 39.0399H40.4781C41.7512 39.0399 42.9721 39.5456 43.8722 40.4458C44.7724 41.346 45.2781 42.5669 45.2781 43.8399C45.2873 44.6753 45.0724 45.4979 44.6559 46.2221Z" fill="white"/>
<path d="M38.8069 50.6667C38.8069 50.1952 38.6196 49.743 38.2862 49.4096C37.9528 49.0762 37.5007 48.8889 37.0292 48.8889H26.3625C25.891 48.8889 25.4388 49.0762 25.1054 49.4096C24.772 49.743 24.5847 50.1952 24.5847 50.6667C24.5847 51.1382 24.772 51.5904 25.1054 51.9238C25.4388 52.2572 25.891 52.4445 26.3625 52.4445H37.0292C37.5007 52.4445 37.9528 52.2572 38.2862 51.9238C38.6196 51.5904 38.8069 51.1382 38.8069 50.6667Z" fill="white"/>
<path d="M40.4781 41.7778H29.8115C29.34 41.7778 28.8878 41.9651 28.5544 42.2985C28.221 42.6319 28.0337 43.0841 28.0337 43.5556C28.0337 44.0271 28.221 44.4793 28.5544 44.8127C28.8878 45.1461 29.34 45.3334 29.8115 45.3334H40.4781C40.9496 45.3334 41.4018 45.1461 41.7352 44.8127C42.0686 44.4793 42.2559 44.0271 42.2559 43.5556C42.2559 43.0841 42.0686 42.6319 41.7352 42.2985C41.4018 41.9651 40.9496 41.7778 40.4781 41.7778Z" fill="white"/>
<path d="M39.5181 56H28.8514C28.3799 56 27.9277 56.1873 27.5943 56.5207C27.2609 56.8541 27.0736 57.3063 27.0736 57.7778C27.0736 58.2493 27.2609 58.7015 27.5943 59.0349C27.9277 59.3683 28.3799 59.5556 28.8514 59.5556H39.5181C39.9895 59.5556 40.4417 59.3683 40.7751 59.0349C41.1085 58.7015 41.2958 58.2493 41.2958 57.7778C41.2958 57.3063 41.1085 56.8541 40.7751 56.5207C40.4417 56.1873 39.9895 56 39.5181 56Z" fill="white"/>
<path d="M58.5403 56H46.0959C45.6244 56 45.1722 56.1873 44.8388 56.5207C44.5054 56.8541 44.3181 57.3063 44.3181 57.7778C44.3181 58.2493 44.5054 58.7015 44.8388 59.0349C45.1722 59.3683 45.6244 59.5556 46.0959 59.5556H58.5403C59.0118 59.5556 59.464 59.3683 59.7974 59.0349C60.1308 58.7015 60.3181 58.2493 60.3181 57.7778C60.3181 57.3063 60.1308 56.8541 59.7974 56.5207C59.464 56.1873 59.0118 56 58.5403 56Z" fill="white"/>
<path d="M60.318 48.8889H47.8736C47.4021 48.8889 46.9499 49.0762 46.6165 49.4096C46.2831 49.743 46.0958 50.1952 46.0958 50.6667C46.0958 51.1382 46.2831 51.5904 46.6165 51.9238C46.9499 52.2572 47.4021 52.4445 47.8736 52.4445H60.318C60.7895 52.4445 61.2417 52.2572 61.5751 51.9238C61.9085 51.5904 62.0958 51.1382 62.0958 50.6667C62.0958 50.1952 61.9085 49.743 61.5751 49.4096C61.2417 49.0762 60.7895 48.8889 60.318 48.8889Z" fill="white"/>
</g>
<defs>
<clipPath id="clip0_11819_40222">
<rect width="64" height="64" fill="white" transform="translate(0.406982)"/>
</clipPath>
</defs>
</svg>
