<svg viewBox="0 0 13.3333 13.3333" fill="none" xmlns="http://www.w3.org/2000/svg" xmlns:xlink="http://www.w3.org/1999/xlink" x="0" y="0"><g id="icon">
<path d="M9.117,5.8247c0.2715,-0.248 0.29,-0.67 0.0413,-0.942c-0.2486,-0.271 -0.6703,-0.29 -0.9419,-0.041l-2.4614,2.254l-0.638,-0.584c-0.2716,-0.249 -0.6933,-0.23 -0.9419,0.041c-0.2487,0.272 -0.2302,0.693 0.0413,0.942l1.0884,0.997c0.2548,0.233 0.6457,0.233 0.9005,0z" fill="currentColor"/>
<path fill-rule="evenodd" clip-rule="evenodd" d="M6.6667,-0.0003c-3.6819,0 -6.6667,2.985 -6.6667,6.667c0,3.682 2.9848,6.667 6.6667,6.667c3.6819,0 6.6667,-2.985 6.6667,-6.667c0,-3.682 -2.9848,-6.667 -6.6667,-6.667zM1.3334,6.6667c0,-2.946 2.3878,-5.333 5.3333,-5.333c2.9455,0 5.3333,2.387 5.3333,5.333c0,2.945 -2.3878,5.333 -5.3333,5.333c-2.9455,0 -5.3333,-2.388 -5.3333,-5.333z" fill="currentColor"/>
</g></svg>